<svg xmlns="http://www.w3.org/2000/svg" version="1.1" xmlns:xlink="http://www.w3.org/1999/xlink" xmlns:svgjs="http://svgjs.dev/svgjs" viewBox="0 0 800 800"><circle r="7.5" cx="470" cy="255" stroke-width="2" stroke="hsl(3, 50%, 50%)" fill="none" opacity="0.70"></circle><circle r="8" cx="727" cy="357" stroke-width="2" stroke="hsl(6, 50%, 50%)" fill="none" opacity="0.54"></circle><circle r="9" cx="311" cy="496" fill="hsl(6, 50%, 50%)" opacity="0.85"></circle><circle r="9" cx="305" cy="76" stroke-width="2" stroke="hsl(7, 50%, 50%)" fill="none" opacity="0.17"></circle><circle r="11" cx="216" cy="604" stroke-width="2" stroke="hsl(7, 50%, 50%)" fill="none" opacity="0.96"></circle><circle r="9" cx="620" cy="455" fill="hsl(5, 50%, 50%)" opacity="0.75"></circle><circle r="7.5" cx="561" cy="198" stroke-width="2" stroke="hsl(4, 50%, 50%)" fill="none" opacity="0.66"></circle><circle r="10" cx="225" cy="751" fill="hsl(7, 50%, 50%)" opacity="0.73"></circle><circle r="7" cx="443" cy="517" stroke-width="2" stroke="hsl(3, 50%, 50%)" fill="none" opacity="0.35"></circle><circle r="10.5" cx="125" cy="512" stroke-width="2" stroke="hsl(7, 50%, 50%)" fill="none" opacity="0.38"></circle><circle r="9.5" cx="750" cy="435" fill="hsl(6, 50%, 50%)" opacity="0.87"></circle><circle r="7.5" cx="408" cy="663" stroke-width="2" stroke="hsl(4, 50%, 50%)" fill="none" opacity="0.77"></circle><circle r="9" cx="634" cy="373" stroke-width="2" stroke="hsl(5, 50%, 50%)" fill="none" opacity="0.40"></circle><circle r="9.5" cx="440" cy="107" fill="hsl(6, 50%, 50%)" opacity="0.99"></circle><circle r="7" cx="496" cy="372" fill="hsl(4, 50%, 50%)" opacity="0.56"></circle><circle r="9" cx="316" cy="621" fill="hsl(5, 50%, 50%)" opacity="0.26"></circle><circle r="9.5" cx="109" cy="651" fill="hsl(7, 50%, 50%)" opacity="0.56"></circle><circle r="10" cx="251" cy="467" stroke-width="2" stroke="hsl(7, 50%, 50%)" fill="none" opacity="0.59"></circle><circle r="8.5" cx="784" cy="199" fill="hsl(6, 50%, 50%)" opacity="0.13"></circle><circle r="10.5" cx="204" cy="783" stroke-width="2" stroke="hsl(7, 50%, 50%)" fill="none" opacity="0.58"></circle><circle r="9" cx="44" cy="683" stroke-width="2" stroke="hsl(6, 50%, 50%)" fill="none" opacity="0.98"></circle><circle r="7.5" cx="531" cy="328" stroke-width="2" stroke="hsl(4, 50%, 50%)" fill="none" opacity="0.90"></circle><circle r="9" cx="688" cy="723" stroke-width="2" stroke="hsl(6, 50%, 50%)" fill="none" opacity="0.89"></circle><circle r="9.5" cx="179" cy="760" fill="hsl(8, 50%, 50%)" opacity="0.54"></circle><circle r="10" cx="248" cy="504" stroke-width="2" stroke="hsl(7, 50%, 50%)" fill="none" opacity="0.61"></circle><circle r="7.5" cx="523" cy="213" fill="hsl(4, 50%, 50%)" opacity="0.76"></circle><circle r="11" cx="218" cy="565" fill="hsl(7, 50%, 50%)" opacity="0.53"></circle><circle r="9.5" cx="717" cy="280" stroke-width="2" stroke="hsl(6, 50%, 50%)" fill="none" opacity="0.35"></circle><circle r="9.5" cx="95" cy="493" fill="hsl(7, 50%, 50%)" opacity="0.82"></circle><circle r="8" cx="62" cy="504" fill="hsl(6, 50%, 50%)" opacity="0.35"></circle><circle r="9" cx="754" cy="469" fill="hsl(6, 50%, 50%)" opacity="0.47"></circle><circle r="7.5" cx="482" cy="675" fill="hsl(4, 50%, 50%)" opacity="0.95"></circle><circle r="11" cx="256" cy="720" stroke-width="2" stroke="hsl(7, 50%, 50%)" fill="none" opacity="0.35"></circle><circle r="10" cx="224" cy="209" stroke-width="2" stroke="hsl(7, 50%, 50%)" fill="none" opacity="0.80"></circle><circle r="8" cx="542" cy="522" stroke-width="2" stroke="hsl(4, 50%, 50%)" fill="none" opacity="0.94"></circle><circle r="8" cx="343" cy="482" stroke-width="2" stroke="hsl(5, 50%, 50%)" fill="none" opacity="0.19"></circle><circle r="7" cx="497" cy="308" fill="hsl(4, 50%, 50%)" opacity="0.86"></circle><circle r="7" cx="481" cy="400" fill="hsl(4, 50%, 50%)" opacity="0.65"></circle><circle r="8.5" cx="611" cy="260" fill="hsl(5, 50%, 50%)" opacity="0.86"></circle><circle r="8" cx="391" cy="632" fill="hsl(4, 50%, 50%)" opacity="0.89"></circle><circle r="11" cx="216" cy="135" stroke-width="2" stroke="hsl(7, 50%, 50%)" fill="none" opacity="0.32"></circle><circle r="9.5" cx="15" cy="298" fill="hsl(6, 50%, 50%)" opacity="0.68"></circle><circle r="10" cx="118" cy="443" stroke-width="2" stroke="hsl(7, 50%, 50%)" fill="none" opacity="0.20"></circle><circle r="9" cx="683" cy="416" stroke-width="2" stroke="hsl(6, 50%, 50%)" fill="none" opacity="0.63"></circle><circle r="9.5" cx="117" cy="212" fill="hsl(7, 50%, 50%)" opacity="0.80"></circle><circle r="9.5" cx="261" cy="293" fill="hsl(7, 50%, 50%)" opacity="0.87"></circle><circle r="9" cx="51" cy="44" stroke-width="2" stroke="hsl(7, 50%, 50%)" fill="none" opacity="0.33"></circle><circle r="7.5" cx="398" cy="571" stroke-width="2" stroke="hsl(4, 50%, 50%)" fill="none" opacity="0.54"></circle><circle r="11" cx="752" cy="98" stroke-width="2" stroke="hsl(8, 50%, 50%)" fill="none" opacity="0.67"></circle><circle r="10" cx="47" cy="568" fill="hsl(6, 50%, 50%)" opacity="0.32"></circle><circle r="11" cx="109" cy="689" fill="hsl(7, 50%, 50%)" opacity="0.40"></circle><circle r="9" cx="566" cy="626" fill="hsl(5, 50%, 50%)" opacity="0.34"></circle><circle r="7.5" cx="403" cy="725" fill="hsl(4, 50%, 50%)" opacity="0.82"></circle><circle r="9" cx="783" cy="237" fill="hsl(6, 50%, 50%)" opacity="0.69"></circle><circle r="9.5" cx="75" cy="694" stroke-width="2" stroke="hsl(7, 50%, 50%)" fill="none" opacity="0.98"></circle><circle r="8" cx="477" cy="575" stroke-width="2" stroke="hsl(4, 50%, 50%)" fill="none" opacity="0.24"></circle><circle r="8.5" cx="316" cy="265" fill="hsl(5, 50%, 50%)" opacity="0.20"></circle><circle r="10" cx="269" cy="330" stroke-width="2" stroke="hsl(6, 50%, 50%)" fill="none" opacity="0.89"></circle><circle r="9" cx="614" cy="782" stroke-width="2" stroke="hsl(5, 50%, 50%)" fill="none" opacity="0.75"></circle><circle r="10.5" cx="606" cy="78" stroke-width="2" stroke="hsl(7, 50%, 50%)" fill="none" opacity="0.23"></circle><circle r="10" cx="118" cy="44" stroke-width="2" stroke="hsl(8, 50%, 50%)" fill="none" opacity="0.75"></circle><circle r="7.5" cx="460" cy="165" fill="hsl(4, 50%, 50%)" opacity="0.38"></circle><circle r="9" cx="782" cy="416" stroke-width="2" stroke="hsl(6, 50%, 50%)" fill="none" opacity="0.27"></circle><circle r="9" cx="122" cy="785" stroke-width="2" stroke="hsl(7, 50%, 50%)" fill="none" opacity="0.44"></circle><circle r="8" cx="565" cy="724" fill="hsl(5, 50%, 50%)" opacity="0.75"></circle><circle r="8" cx="396" cy="278" fill="hsl(4, 50%, 50%)" opacity="0.57"></circle><circle r="7" cx="520" cy="397" stroke-width="2" stroke="hsl(4, 50%, 50%)" fill="none" opacity="0.79"></circle><circle r="9" cx="51" cy="448" stroke-width="2" stroke="hsl(6, 50%, 50%)" fill="none" opacity="0.72"></circle><circle r="7.5" cx="463" cy="324" fill="hsl(3, 50%, 50%)" opacity="0.13"></circle><circle r="7.5" cx="753" cy="785" fill="hsl(6, 50%, 50%)" opacity="0.68"></circle><circle r="8.5" cx="243" cy="785" fill="hsl(7, 50%, 50%)" opacity="0.54"></circle><circle r="7.5" cx="500" cy="274" fill="hsl(4, 50%, 50%)" opacity="0.38"></circle><circle r="9" cx="282" cy="626" stroke-width="2" stroke="hsl(6, 50%, 50%)" fill="none" opacity="0.10"></circle><circle r="9" cx="623" cy="297" stroke-width="2" stroke="hsl(5, 50%, 50%)" fill="none" opacity="0.55"></circle><circle r="10" cx="87" cy="231" stroke-width="2" stroke="hsl(7, 50%, 50%)" fill="none" opacity="0.23"></circle><circle r="8.5" cx="783" cy="487" stroke-width="2" stroke="hsl(6, 50%, 50%)" fill="none" opacity="0.15"></circle><circle r="8.5" cx="497" cy="155" fill="hsl(5, 50%, 50%)" opacity="0.17"></circle><circle r="9.5" cx="15" cy="585" fill="hsl(6, 50%, 50%)" opacity="0.56"></circle><circle r="7.5" cx="414" cy="605" fill="hsl(4, 50%, 50%)" opacity="0.70"></circle><circle r="7.5" cx="494" cy="431" fill="hsl(4, 50%, 50%)" opacity="0.18"></circle><circle r="6.5" cx="435" cy="578" fill="hsl(3, 50%, 50%)" opacity="0.92"></circle><circle r="8.5" cx="295" cy="716" stroke-width="2" stroke="hsl(6, 50%, 50%)" fill="none" opacity="0.95"></circle><circle r="10.5" cx="151" cy="563" stroke-width="2" stroke="hsl(7, 50%, 50%)" fill="none" opacity="0.22"></circle><circle r="10.5" cx="19" cy="509" stroke-width="2" stroke="hsl(6, 50%, 50%)" fill="none" opacity="0.29"></circle><circle r="8" cx="369" cy="462" fill="hsl(4, 50%, 50%)" opacity="0.85"></circle><circle r="9" cx="330" cy="722" stroke-width="2" stroke="hsl(5, 50%, 50%)" fill="none" opacity="0.36"></circle><circle r="9.5" cx="49" cy="347" fill="hsl(6, 50%, 50%)" opacity="0.40"></circle><circle r="10.5" cx="630" cy="124" stroke-width="2" stroke="hsl(7, 50%, 50%)" fill="none" opacity="0.58"></circle><circle r="7.5" cx="478" cy="535" stroke-width="2" stroke="hsl(4, 50%, 50%)" fill="none" opacity="0.68"></circle><circle r="11" cx="195" cy="264" stroke-width="2" stroke="hsl(7, 50%, 50%)" fill="none" opacity="0.81"></circle><circle r="9.5" cx="631" cy="749" fill="hsl(5, 50%, 50%)" opacity="0.95"></circle><circle r="9" cx="783" cy="664" stroke-width="2" stroke="hsl(6, 50%, 50%)" fill="none" opacity="0.34"></circle><circle r="8.5" cx="687" cy="782" stroke-width="2" stroke="hsl(6, 50%, 50%)" fill="none" opacity="0.72"></circle><circle r="11" cx="202" cy="301" fill="hsl(7, 50%, 50%)" opacity="0.68"></circle><circle r="9" cx="590" cy="433" fill="hsl(5, 50%, 50%)" opacity="0.17"></circle><circle r="7.5" cx="509" cy="551" fill="hsl(4, 50%, 50%)" opacity="0.27"></circle><circle r="10" cx="660" cy="107" stroke-width="2" stroke="hsl(7, 50%, 50%)" fill="none" opacity="0.89"></circle><circle r="8.5" cx="257" cy="757" fill="hsl(7, 50%, 50%)" opacity="0.71"></circle><circle r="9" cx="689" cy="311" fill="hsl(6, 50%, 50%)" opacity="0.92"></circle><circle r="9" cx="319" cy="458" stroke-width="2" stroke="hsl(5, 50%, 50%)" fill="none" opacity="0.78"></circle><circle r="9" cx="310" cy="108" fill="hsl(6, 50%, 50%)" opacity="0.43"></circle><circle r="9.5" cx="197" cy="735" fill="hsl(7, 50%, 50%)" opacity="0.93"></circle><circle r="8" cx="365" cy="336" stroke-width="2" stroke="hsl(4, 50%, 50%)" fill="none" opacity="0.92"></circle><circle r="8.5" cx="619" cy="412" stroke-width="2" stroke="hsl(5, 50%, 50%)" fill="none" opacity="0.55"></circle><circle r="9" cx="749" cy="720" stroke-width="2" stroke="hsl(6, 50%, 50%)" fill="none" opacity="0.74"></circle><circle r="8.5" cx="784" cy="553" stroke-width="2" stroke="hsl(6, 50%, 50%)" fill="none" opacity="0.13"></circle><circle r="8.5" cx="784" cy="451" stroke-width="2" stroke="hsl(6, 50%, 50%)" fill="none" opacity="0.93"></circle><circle r="9" cx="305" cy="204" fill="hsl(6, 50%, 50%)" opacity="0.72"></circle><circle r="9.5" cx="630" cy="163" fill="hsl(6, 50%, 50%)" opacity="0.65"></circle><circle r="10.5" cx="185" cy="579" stroke-width="2" stroke="hsl(8, 50%, 50%)" fill="none" opacity="0.57"></circle><circle r="11" cx="186" cy="545" stroke-width="2" stroke="hsl(8, 50%, 50%)" fill="none" opacity="0.66"></circle><circle r="9.5" cx="617" cy="714" stroke-width="2" stroke="hsl(5, 50%, 50%)" fill="none" opacity="0.87"></circle><circle r="7.5" cx="404" cy="473" fill="hsl(4, 50%, 50%)" opacity="0.33"></circle><circle r="7.5" cx="398" cy="315" stroke-width="2" stroke="hsl(4, 50%, 50%)" fill="none" opacity="0.27"></circle><circle r="9.5" cx="256" cy="16" stroke-width="2" stroke="hsl(7, 50%, 50%)" fill="none" opacity="0.25"></circle><circle r="11" cx="781" cy="49" stroke-width="2" stroke="hsl(8, 50%, 50%)" fill="none" opacity="0.15"></circle><circle r="10.5" cx="784" cy="120" fill="hsl(8, 50%, 50%)" opacity="0.23"></circle><circle r="7.5" cx="365" cy="570" stroke-width="2" stroke="hsl(4, 50%, 50%)" fill="none" opacity="0.36"></circle><circle r="10" cx="256" cy="249" stroke-width="2" stroke="hsl(7, 50%, 50%)" fill="none" opacity="0.13"></circle><circle r="10" cx="280" cy="409" fill="hsl(6, 50%, 50%)" opacity="0.29"></circle><circle r="9" cx="281" cy="483" fill="hsl(6, 50%, 50%)" opacity="0.60"></circle><circle r="10.5" cx="231" cy="277" stroke-width="2" stroke="hsl(7, 50%, 50%)" fill="none" opacity="0.60"></circle><circle r="8.5" cx="664" cy="617" stroke-width="2" stroke="hsl(5, 50%, 50%)" fill="none" opacity="0.39"></circle><circle r="10.5" cx="361" cy="17" stroke-width="2" stroke="hsl(8, 50%, 50%)" fill="none" opacity="0.64"></circle><circle r="7" cx="479" cy="220" stroke-width="2" stroke="hsl(4, 50%, 50%)" fill="none" opacity="0.29"></circle><circle r="6.5" cx="405" cy="785" stroke-width="2" stroke="hsl(4, 50%, 50%)" fill="none" opacity="0.89"></circle><circle r="9" cx="42" cy="604" stroke-width="2" stroke="hsl(6, 50%, 50%)" fill="none" opacity="0.42"></circle><circle r="8.5" cx="594" cy="600" fill="hsl(5, 50%, 50%)" opacity="0.40"></circle><circle r="9" cx="739" cy="500" stroke-width="2" stroke="hsl(6, 50%, 50%)" fill="none" opacity="0.32"></circle><circle r="11" cx="517" cy="47" stroke-width="2" stroke="hsl(8, 50%, 50%)" fill="none" opacity="0.82"></circle><circle r="10" cx="248" cy="543" fill="hsl(7, 50%, 50%)" opacity="0.81"></circle><circle r="11" cx="215" cy="98" fill="hsl(7, 50%, 50%)" opacity="0.15"></circle><circle r="10" cx="251" cy="581" stroke-width="2" stroke="hsl(7, 50%, 50%)" fill="none" opacity="0.37"></circle><circle r="9" cx="66" cy="627" stroke-width="2" stroke="hsl(7, 50%, 50%)" fill="none" opacity="0.83"></circle><circle r="7" cx="430" cy="301" fill="hsl(3, 50%, 50%)" opacity="0.96"></circle><circle r="10.5" cx="719" cy="18" fill="hsl(8, 50%, 50%)" opacity="0.86"></circle><circle r="9" cx="118" cy="14" stroke-width="2" stroke="hsl(8, 50%, 50%)" fill="none" opacity="0.66"></circle><circle r="9.5" cx="84" cy="784" stroke-width="2" stroke="hsl(7, 50%, 50%)" fill="none" opacity="0.54"></circle><circle r="7.5" cx="454" cy="606" fill="hsl(3, 50%, 50%)" opacity="0.96"></circle><circle r="10" cx="127" cy="620" fill="hsl(7, 50%, 50%)" opacity="0.98"></circle><circle r="9.5" cx="96" cy="619" stroke-width="2" stroke="hsl(7, 50%, 50%)" fill="none" opacity="0.55"></circle><circle r="9.5" cx="314" cy="422" stroke-width="2" stroke="hsl(5, 50%, 50%)" fill="none" opacity="0.60"></circle><circle r="11" cx="241" cy="354" stroke-width="2" stroke="hsl(7, 50%, 50%)" fill="none" opacity="0.32"></circle><circle r="8" cx="353" cy="626" fill="hsl(4, 50%, 50%)" opacity="0.93"></circle><circle r="8" cx="693" cy="633" stroke-width="2" stroke="hsl(6, 50%, 50%)" fill="none" opacity="0.92"></circle><circle r="7" cx="435" cy="268" fill="hsl(3, 50%, 50%)" opacity="0.82"></circle><circle r="10.5" cx="504" cy="82" stroke-width="2" stroke="hsl(7, 50%, 50%)" fill="none" opacity="0.48"></circle><circle r="11" cx="186" cy="434" stroke-width="2" stroke="hsl(8, 50%, 50%)" fill="none" opacity="0.64"></circle><circle r="7" cx="420" cy="207" fill="hsl(4, 50%, 50%)" opacity="0.75"></circle><circle r="11" cx="189" cy="226" stroke-width="2" stroke="hsl(7, 50%, 50%)" fill="none" opacity="0.71"></circle><circle r="11" cx="218" cy="19" stroke-width="2" stroke="hsl(8, 50%, 50%)" fill="none" opacity="0.49"></circle><circle r="9" cx="691" cy="213" stroke-width="2" stroke="hsl(6, 50%, 50%)" fill="none" opacity="0.80"></circle><circle r="10" cx="695" cy="146" stroke-width="2" stroke="hsl(7, 50%, 50%)" fill="none" opacity="0.25"></circle><circle r="10.5" cx="290" cy="17" stroke-width="2" stroke="hsl(7, 50%, 50%)" fill="none" opacity="0.41"></circle><circle r="8" cx="381" cy="182" stroke-width="2" stroke="hsl(4, 50%, 50%)" fill="none" opacity="0.66"></circle><circle r="9" cx="713" cy="746" stroke-width="2" stroke="hsl(6, 50%, 50%)" fill="none" opacity="0.59"></circle><circle r="9.5" cx="751" cy="293" fill="hsl(6, 50%, 50%)" opacity="0.53"></circle><circle r="9" cx="17" cy="19" fill="hsl(5, 50%, 50%)" opacity="0.55"></circle><circle r="8.5" cx="346" cy="113" stroke-width="2" stroke="hsl(6, 50%, 50%)" fill="none" opacity="0.75"></circle><circle r="8.5" cx="374" cy="125" stroke-width="2" stroke="hsl(6, 50%, 50%)" fill="none" opacity="0.40"></circle><circle r="9" cx="783" cy="272" stroke-width="2" stroke="hsl(6, 50%, 50%)" fill="none" opacity="0.50"></circle><circle r="11" cx="629" cy="48" fill="hsl(8, 50%, 50%)" opacity="0.30"></circle><circle r="7" cx="444" cy="232" stroke-width="2" stroke="hsl(3, 50%, 50%)" fill="none" opacity="0.42"></circle><circle r="7" cx="445" cy="783" fill="hsl(3, 50%, 50%)" opacity="0.99"></circle><circle r="7.5" cx="515" cy="783" fill="hsl(4, 50%, 50%)" opacity="0.60"></circle><circle r="8.5" cx="314" cy="754" fill="hsl(5, 50%, 50%)" opacity="0.70"></circle><circle r="10" cx="242" cy="45" fill="hsl(7, 50%, 50%)" opacity="0.79"></circle><circle r="10.5" cx="82" cy="359" stroke-width="2" stroke="hsl(7, 50%, 50%)" fill="none" opacity="0.48"></circle><circle r="8" cx="516" cy="684" stroke-width="2" stroke="hsl(4, 50%, 50%)" fill="none" opacity="0.80"></circle><circle r="9.5" cx="784" cy="160" stroke-width="2" stroke="hsl(7, 50%, 50%)" fill="none" opacity="0.51"></circle><circle r="11" cx="118" cy="78" stroke-width="2" stroke="hsl(8, 50%, 50%)" fill="none" opacity="0.80"></circle><circle r="9" cx="630" cy="607" stroke-width="2" stroke="hsl(5, 50%, 50%)" fill="none" opacity="0.58"></circle><circle r="7.5" cx="423" cy="695" fill="hsl(4, 50%, 50%)" opacity="0.87"></circle><circle r="7.5" cx="359" cy="215" stroke-width="2" stroke="hsl(4, 50%, 50%)" fill="none" opacity="0.19"></circle><circle r="7.5" cx="431" cy="635" fill="hsl(3, 50%, 50%)" opacity="0.30"></circle><circle r="10" cx="213" cy="60" fill="hsl(7, 50%, 50%)" opacity="0.50"></circle><circle r="8.5" cx="562" cy="314" fill="hsl(4, 50%, 50%)" opacity="0.11"></circle><circle r="8" cx="573" cy="537" stroke-width="2" stroke="hsl(5, 50%, 50%)" fill="none" opacity="0.90"></circle><circle r="7.5" cx="440" cy="482" stroke-width="2" stroke="hsl(3, 50%, 50%)" fill="none" opacity="0.85"></circle><circle r="9" cx="569" cy="98" stroke-width="2" stroke="hsl(7, 50%, 50%)" fill="none" opacity="0.92"></circle><circle r="10.5" cx="134" cy="276" fill="hsl(7, 50%, 50%)" opacity="0.10"></circle><circle r="10" cx="285" cy="447" stroke-width="2" stroke="hsl(6, 50%, 50%)" fill="none" opacity="0.23"></circle><circle r="8" cx="370" cy="660" stroke-width="2" stroke="hsl(4, 50%, 50%)" fill="none" opacity="0.15"></circle><circle r="7.5" cx="326" cy="785" fill="hsl(5, 50%, 50%)" opacity="0.17"></circle><circle r="9" cx="783" cy="740" stroke-width="2" stroke="hsl(6, 50%, 50%)" fill="none" opacity="0.25"></circle><circle r="10.5" cx="246" cy="79" fill="hsl(7, 50%, 50%)" opacity="0.33"></circle><circle r="9.5" cx="593" cy="746" stroke-width="2" stroke="hsl(5, 50%, 50%)" fill="none" opacity="0.74"></circle><circle r="9.5" cx="651" cy="439" fill="hsl(5, 50%, 50%)" opacity="0.62"></circle><circle r="10" cx="50" cy="180" fill="hsl(6, 50%, 50%)" opacity="0.47"></circle><circle r="7.5" cx="340" cy="189" stroke-width="2" stroke="hsl(5, 50%, 50%)" fill="none" opacity="0.35"></circle><circle r="8" cx="367" cy="372" stroke-width="2" stroke="hsl(4, 50%, 50%)" fill="none" opacity="0.22"></circle><circle r="8.5" cx="556" cy="591" fill="hsl(4, 50%, 50%)" opacity="0.32"></circle><circle r="9" cx="298" cy="656" fill="hsl(6, 50%, 50%)" opacity="0.83"></circle><circle r="9.5" cx="86" cy="724" fill="hsl(7, 50%, 50%)" opacity="0.39"></circle><circle r="9.5" cx="503" cy="121" fill="hsl(6, 50%, 50%)" opacity="0.77"></circle><circle r="7" cx="504" cy="241" stroke-width="2" stroke="hsl(4, 50%, 50%)" fill="none" opacity="0.94"></circle><circle r="11" cx="149" cy="385" stroke-width="2" stroke="hsl(7, 50%, 50%)" fill="none" opacity="0.71"></circle><circle r="8" cx="376" cy="499" fill="hsl(4, 50%, 50%)" opacity="0.68"></circle><circle r="8" cx="556" cy="383" stroke-width="2" stroke="hsl(4, 50%, 50%)" fill="none" opacity="0.99"></circle><circle r="9" cx="721" cy="463" stroke-width="2" stroke="hsl(6, 50%, 50%)" fill="none" opacity="0.31"></circle><circle r="8.5" cx="671" cy="657" stroke-width="2" stroke="hsl(5, 50%, 50%)" fill="none" opacity="0.62"></circle><circle r="8" cx="530" cy="618" stroke-width="2" stroke="hsl(4, 50%, 50%)" fill="none" opacity="0.74"></circle><circle r="9.5" cx="56" cy="250" fill="hsl(6, 50%, 50%)" opacity="0.64"></circle><circle r="8.5" cx="784" cy="383" stroke-width="2" stroke="hsl(6, 50%, 50%)" fill="none" opacity="1.00"></circle><circle r="9.5" cx="17" cy="367" fill="hsl(6, 50%, 50%)" opacity="0.42"></circle><circle r="7.5" cx="409" cy="507" fill="hsl(4, 50%, 50%)" opacity="0.63"></circle><circle r="11" cx="156" cy="491" stroke-width="2" stroke="hsl(7, 50%, 50%)" fill="none" opacity="0.41"></circle><circle r="8.5" cx="749" cy="754" fill="hsl(6, 50%, 50%)" opacity="0.82"></circle><circle r="8.5" cx="540" cy="654" fill="hsl(4, 50%, 50%)" opacity="0.47"></circle><circle r="10" cx="711" cy="527" stroke-width="2" stroke="hsl(6, 50%, 50%)" fill="none" opacity="0.49"></circle><circle r="11" cx="185" cy="702" fill="hsl(8, 50%, 50%)" opacity="0.77"></circle><circle r="9.5" cx="699" cy="595" stroke-width="2" stroke="hsl(6, 50%, 50%)" fill="none" opacity="0.71"></circle><circle r="9.5" cx="476" cy="98" fill="hsl(7, 50%, 50%)" opacity="0.46"></circle><circle r="7.5" cx="340" cy="551" stroke-width="2" stroke="hsl(5, 50%, 50%)" fill="none" opacity="0.22"></circle><circle r="9.5" cx="14" cy="667" stroke-width="2" stroke="hsl(6, 50%, 50%)" fill="none" opacity="0.37"></circle><circle r="10" cx="593" cy="43" fill="hsl(8, 50%, 50%)" opacity="0.51"></circle><circle r="9.5" cx="750" cy="645" stroke-width="2" stroke="hsl(6, 50%, 50%)" fill="none" opacity="0.21"></circle><circle r="8" cx="473" cy="462" fill="hsl(3, 50%, 50%)" opacity="0.87"></circle><circle r="10" cx="261" cy="653" fill="hsl(7, 50%, 50%)" opacity="0.59"></circle><circle r="9" cx="745" cy="603" stroke-width="2" stroke="hsl(6, 50%, 50%)" fill="none" opacity="0.48"></circle><circle r="10" cx="248" cy="185" fill="hsl(7, 50%, 50%)" opacity="0.13"></circle><circle r="10.5" cx="156" cy="636" stroke-width="2" stroke="hsl(7, 50%, 50%)" fill="none" opacity="0.57"></circle><circle r="10" cx="181" cy="612" stroke-width="2" stroke="hsl(8, 50%, 50%)" fill="none" opacity="0.95"></circle><circle r="10.5" cx="107" cy="300" fill="hsl(7, 50%, 50%)" opacity="0.94"></circle><circle r="9" cx="595" cy="221" stroke-width="2" stroke="hsl(5, 50%, 50%)" fill="none" opacity="0.85"></circle><circle r="9" cx="671" cy="242" stroke-width="2" stroke="hsl(5, 50%, 50%)" fill="none" opacity="0.66"></circle><circle r="8.5" cx="722" cy="626" fill="hsl(6, 50%, 50%)" opacity="0.35"></circle><circle r="7" cx="400" cy="386" stroke-width="2" stroke="hsl(4, 50%, 50%)" fill="none" opacity="0.75"></circle><circle r="10" cx="84" cy="163" fill="hsl(7, 50%, 50%)" opacity="0.28"></circle><circle r="7" cx="366" cy="785" fill="hsl(4, 50%, 50%)" opacity="0.54"></circle><circle r="9" cx="783" cy="702" stroke-width="2" stroke="hsl(6, 50%, 50%)" fill="none" opacity="0.68"></circle><circle r="8.5" cx="590" cy="393" fill="hsl(5, 50%, 50%)" opacity="0.82"></circle><circle r="10" cx="194" cy="641" fill="hsl(7, 50%, 50%)" opacity="0.87"></circle><circle r="10" cx="97" cy="263" fill="hsl(7, 50%, 50%)" opacity="0.26"></circle><circle r="6.5" cx="391" cy="215" fill="hsl(4, 50%, 50%)" opacity="0.49"></circle><circle r="11" cx="116" cy="372" stroke-width="2" stroke="hsl(7, 50%, 50%)" fill="none" opacity="0.59"></circle><circle r="11" cx="183" cy="399" stroke-width="2" stroke="hsl(8, 50%, 50%)" fill="none" opacity="0.79"></circle><circle r="10" cx="85" cy="429" stroke-width="2" stroke="hsl(7, 50%, 50%)" fill="none" opacity="0.60"></circle><circle r="10" cx="553" cy="42" stroke-width="2" stroke="hsl(8, 50%, 50%)" fill="none" opacity="0.15"></circle><circle r="11" cx="217" cy="414" stroke-width="2" stroke="hsl(7, 50%, 50%)" fill="none" opacity="0.82"></circle><circle r="8.5" cx="602" cy="361" fill="hsl(5, 50%, 50%)" opacity="0.43"></circle><circle r="10" cx="19" cy="746" stroke-width="2" stroke="hsl(6, 50%, 50%)" fill="none" opacity="0.28"></circle><circle r="9" cx="745" cy="398" stroke-width="2" stroke="hsl(6, 50%, 50%)" fill="none" opacity="0.50"></circle><circle r="10.5" cx="251" cy="430" fill="hsl(7, 50%, 50%)" opacity="0.22"></circle><circle r="7" cx="448" cy="395" fill="hsl(3, 50%, 50%)" opacity="0.16"></circle><circle r="8" cx="395" cy="150" stroke-width="2" stroke="hsl(5, 50%, 50%)" fill="none" opacity="0.34"></circle><circle r="6.5" cx="449" cy="551" fill="hsl(3, 50%, 50%)" opacity="0.41"></circle><circle r="8.5" cx="584" cy="470" fill="hsl(5, 50%, 50%)" opacity="0.95"></circle><circle r="8" cx="375" cy="246" stroke-width="2" stroke="hsl(4, 50%, 50%)" fill="none" opacity="0.76"></circle><circle r="9.5" cx="48" cy="783" fill="hsl(6, 50%, 50%)" opacity="0.22"></circle><circle r="9" cx="333" cy="656" stroke-width="2" stroke="hsl(5, 50%, 50%)" fill="none" opacity="0.35"></circle><circle r="9.5" cx="251" cy="615" stroke-width="2" stroke="hsl(7, 50%, 50%)" fill="none" opacity="0.44"></circle><circle r="9" cx="720" cy="782" fill="hsl(6, 50%, 50%)" opacity="0.19"></circle><circle r="9" cx="754" cy="570" stroke-width="2" stroke="hsl(6, 50%, 50%)" fill="none" opacity="0.78"></circle><circle r="8" cx="586" cy="566" fill="hsl(5, 50%, 50%)" opacity="0.60"></circle><circle r="9" cx="355" cy="156" stroke-width="2" stroke="hsl(5, 50%, 50%)" fill="none" opacity="0.43"></circle><circle r="8.5" cx="162" cy="786" fill="hsl(7, 50%, 50%)" opacity="0.26"></circle><circle r="11" cx="114" cy="583" stroke-width="2" stroke="hsl(7, 50%, 50%)" fill="none" opacity="0.33"></circle><circle r="9" cx="285" cy="784" fill="hsl(6, 50%, 50%)" opacity="0.32"></circle><circle r="8" cx="50" cy="14" stroke-width="2" stroke="hsl(7, 50%, 50%)" fill="none" opacity="0.49"></circle><circle r="9.5" cx="747" cy="536" stroke-width="2" stroke="hsl(6, 50%, 50%)" fill="none" opacity="0.49"></circle><circle r="8" cx="386" cy="693" stroke-width="2" stroke="hsl(4, 50%, 50%)" fill="none" opacity="0.24"></circle><circle r="10.5" cx="218" cy="526" fill="hsl(7, 50%, 50%)" opacity="0.38"></circle><circle r="11" cx="725" cy="123" stroke-width="2" stroke="hsl(8, 50%, 50%)" fill="none" opacity="0.34"></circle><circle r="8" cx="344" cy="517" fill="hsl(5, 50%, 50%)" opacity="0.50"></circle><circle r="9.5" cx="647" cy="269" fill="hsl(5, 50%, 50%)" opacity="0.26"></circle><circle r="7" cx="439" cy="727" fill="hsl(3, 50%, 50%)" opacity="0.94"></circle><circle r="9" cx="649" cy="546" stroke-width="2" stroke="hsl(5, 50%, 50%)" fill="none" opacity="0.13"></circle><circle r="8" cx="544" cy="487" stroke-width="2" stroke="hsl(4, 50%, 50%)" fill="none" opacity="0.89"></circle><circle r="8" cx="578" cy="253" fill="hsl(5, 50%, 50%)" opacity="0.68"></circle><circle r="11" cx="187" cy="508" stroke-width="2" stroke="hsl(8, 50%, 50%)" fill="none" opacity="0.54"></circle><circle r="10" cx="102" cy="754" stroke-width="2" stroke="hsl(7, 50%, 50%)" fill="none" opacity="0.57"></circle><circle r="10.5" cx="242" cy="682" stroke-width="2" stroke="hsl(7, 50%, 50%)" fill="none" opacity="0.11"></circle><circle r="11" cx="684" cy="17" stroke-width="2" stroke="hsl(8, 50%, 50%)" fill="none" opacity="0.98"></circle><circle r="8" cx="323" cy="139" fill="hsl(6, 50%, 50%)" opacity="0.58"></circle><circle r="7.5" cx="457" cy="429" fill="hsl(3, 50%, 50%)" opacity="0.17"></circle><circle r="9.5" cx="278" cy="520" stroke-width="2" stroke="hsl(6, 50%, 50%)" fill="none" opacity="0.84"></circle><circle r="11" cx="118" cy="113" stroke-width="2" stroke="hsl(7, 50%, 50%)" fill="none" opacity="0.92"></circle><circle r="9.5" cx="15" cy="626" stroke-width="2" stroke="hsl(6, 50%, 50%)" fill="none" opacity="0.70"></circle><circle r="9" cx="783" cy="591" stroke-width="2" stroke="hsl(6, 50%, 50%)" fill="none" opacity="0.40"></circle><circle r="9.5" cx="16" cy="333" fill="hsl(6, 50%, 50%)" opacity="0.88"></circle><circle r="8.5" cx="780" cy="519" stroke-width="2" stroke="hsl(6, 50%, 50%)" fill="none" opacity="0.31"></circle><circle r="9" cx="650" cy="783" stroke-width="2" stroke="hsl(5, 50%, 50%)" fill="none" opacity="0.46"></circle><circle r="8" cx="505" cy="646" stroke-width="2" stroke="hsl(4, 50%, 50%)" fill="none" opacity="0.61"></circle><circle r="9.5" cx="573" cy="68" stroke-width="2" stroke="hsl(7, 50%, 50%)" fill="none" opacity="0.98"></circle><circle r="8.5" cx="580" cy="781" stroke-width="2" stroke="hsl(5, 50%, 50%)" fill="none" opacity="0.92"></circle><circle r="7.5" cx="376" cy="409" stroke-width="2" stroke="hsl(4, 50%, 50%)" fill="none" opacity="0.63"></circle><circle r="9" cx="653" cy="718" stroke-width="2" stroke="hsl(5, 50%, 50%)" fill="none" opacity="0.99"></circle><circle r="9.5" cx="48" cy="720" fill="hsl(6, 50%, 50%)" opacity="0.77"></circle><circle r="8.5" cx="284" cy="746" stroke-width="2" stroke="hsl(6, 50%, 50%)" fill="none" opacity="0.65"></circle><circle r="8.5" cx="349" cy="754" fill="hsl(5, 50%, 50%)" opacity="0.19"></circle><circle r="10" cx="445" cy="46" stroke-width="2" stroke="hsl(8, 50%, 50%)" fill="none" opacity="0.88"></circle><circle r="10" cx="250" cy="151" fill="hsl(7, 50%, 50%)" opacity="0.22"></circle><circle r="11" cx="213" cy="377" fill="hsl(7, 50%, 50%)" opacity="0.23"></circle><circle r="10" cx="16" cy="547" stroke-width="2" stroke="hsl(6, 50%, 50%)" fill="none" opacity="0.60"></circle><circle r="10.5" cx="150" cy="596" stroke-width="2" stroke="hsl(7, 50%, 50%)" fill="none" opacity="0.76"></circle><circle r="8" cx="555" cy="452" fill="hsl(4, 50%, 50%)" opacity="0.64"></circle><circle r="8.5" cx="633" cy="233" stroke-width="2" stroke="hsl(5, 50%, 50%)" fill="none" opacity="0.93"></circle><circle r="10.5" cx="160" cy="729" fill="hsl(7, 50%, 50%)" opacity="0.57"></circle><circle r="10.5" cx="138" cy="665" fill="hsl(7, 50%, 50%)" opacity="0.92"></circle><circle r="6.5" cx="505" cy="485" stroke-width="2" stroke="hsl(4, 50%, 50%)" fill="none" opacity="0.30"></circle><circle r="9.5" cx="307" cy="384" stroke-width="2" stroke="hsl(6, 50%, 50%)" fill="none" opacity="0.32"></circle><circle r="10" cx="15" cy="707" fill="hsl(6, 50%, 50%)" opacity="0.18"></circle><circle r="10.5" cx="235" cy="316" fill="hsl(7, 50%, 50%)" opacity="0.46"></circle><circle r="10.5" cx="411" cy="46" stroke-width="2" stroke="hsl(8, 50%, 50%)" fill="none" opacity="0.91"></circle><circle r="10" cx="124" cy="475" stroke-width="2" stroke="hsl(7, 50%, 50%)" fill="none" opacity="0.11"></circle><circle r="9.5" cx="51" cy="76" fill="hsl(7, 50%, 50%)" opacity="0.47"></circle><circle r="10.5" cx="285" cy="136" stroke-width="2" stroke="hsl(6, 50%, 50%)" fill="none" opacity="0.53"></circle><circle r="9" cx="664" cy="175" stroke-width="2" stroke="hsl(6, 50%, 50%)" fill="none" opacity="0.64"></circle><circle r="9" cx="18" cy="230" stroke-width="2" stroke="hsl(6, 50%, 50%)" fill="none" opacity="0.12"></circle><circle r="11.5" cx="151" cy="135" fill="hsl(8, 50%, 50%)" opacity="0.93"></circle><circle r="6.5" cx="517" cy="458" stroke-width="2" stroke="hsl(4, 50%, 50%)" fill="none" opacity="0.12"></circle><circle r="7.5" cx="555" cy="229" stroke-width="2" stroke="hsl(4, 50%, 50%)" fill="none" opacity="0.97"></circle><circle r="7" cx="496" cy="341" fill="hsl(4, 50%, 50%)" opacity="0.21"></circle><circle r="9.5" cx="601" cy="110" fill="hsl(7, 50%, 50%)" opacity="0.77"></circle><circle r="10" cx="119" cy="148" stroke-width="2" stroke="hsl(7, 50%, 50%)" fill="none" opacity="0.49"></circle><circle r="9.5" cx="61" cy="752" stroke-width="2" stroke="hsl(6, 50%, 50%)" fill="none" opacity="0.20"></circle><circle r="11.5" cx="182" cy="81" stroke-width="2" stroke="hsl(8, 50%, 50%)" fill="none" opacity="0.58"></circle><circle r="10" cx="430" cy="15" stroke-width="2" stroke="hsl(8, 50%, 50%)" fill="none" opacity="0.70"></circle><circle r="8" cx="331" cy="326" fill="hsl(5, 50%, 50%)" opacity="0.33"></circle><circle r="8" cx="397" cy="350" fill="hsl(4, 50%, 50%)" opacity="0.21"></circle><circle r="7" cx="428" cy="370" stroke-width="2" stroke="hsl(3, 50%, 50%)" fill="none" opacity="0.28"></circle><circle r="11" cx="219" cy="450" fill="hsl(7, 50%, 50%)" opacity="0.16"></circle><circle r="9" cx="42" cy="648" fill="hsl(6, 50%, 50%)" opacity="0.96"></circle><circle r="7.5" cx="529" cy="361" stroke-width="2" stroke="hsl(4, 50%, 50%)" fill="none" opacity="0.43"></circle><circle r="7.5" cx="376" cy="601" fill="hsl(4, 50%, 50%)" opacity="0.11"></circle><circle r="9" cx="622" cy="571" stroke-width="2" stroke="hsl(5, 50%, 50%)" fill="none" opacity="0.84"></circle><circle r="10" cx="661" cy="141" stroke-width="2" stroke="hsl(7, 50%, 50%)" fill="none" opacity="0.90"></circle><circle r="10" cx="77" cy="660" stroke-width="2" stroke="hsl(7, 50%, 50%)" fill="none" opacity="0.57"></circle><circle r="7" cx="492" cy="189" stroke-width="2" stroke="hsl(4, 50%, 50%)" fill="none" opacity="0.68"></circle><circle r="10" cx="639" cy="83" stroke-width="2" stroke="hsl(8, 50%, 50%)" fill="none" opacity="0.84"></circle><circle r="9.5" cx="341" cy="79" stroke-width="2" stroke="hsl(7, 50%, 50%)" fill="none" opacity="0.16"></circle><circle r="10" cx="84" cy="394" stroke-width="2" stroke="hsl(7, 50%, 50%)" fill="none" opacity="0.12"></circle><circle r="9.5" cx="782" cy="626" stroke-width="2" stroke="hsl(6, 50%, 50%)" fill="none" opacity="0.47"></circle><circle r="7.5" cx="393" cy="438" fill="hsl(4, 50%, 50%)" opacity="0.52"></circle><circle r="7.5" cx="529" cy="293" stroke-width="2" stroke="hsl(4, 50%, 50%)" fill="none" opacity="0.74"></circle><circle r="12.5" cx="745" cy="57" fill="hsl(8, 50%, 50%)" opacity="0.74"></circle><circle r="11.5" cx="705" cy="50" fill="hsl(8, 50%, 50%)" opacity="0.42"></circle><circle r="8" cx="386" cy="755" stroke-width="2" stroke="hsl(4, 50%, 50%)" fill="none" opacity="0.45"></circle><circle r="12" cx="718" cy="84" stroke-width="2" stroke="hsl(8, 50%, 50%)" fill="none" opacity="0.41"></circle><circle r="9.5" cx="83" cy="558" stroke-width="2" stroke="hsl(7, 50%, 50%)" fill="none" opacity="0.70"></circle><circle r="8" cx="587" cy="699" fill="hsl(5, 50%, 50%)" opacity="0.71"></circle><circle r="10" cx="182" cy="45" stroke-width="2" stroke="hsl(8, 50%, 50%)" fill="none" opacity="0.16"></circle><circle r="9.5" cx="74" cy="287" fill="hsl(7, 50%, 50%)" opacity="0.40"></circle><circle r="9.5" cx="326" cy="15" stroke-width="2" stroke="hsl(7, 50%, 50%)" fill="none" opacity="0.60"></circle><circle r="9.5" cx="276" cy="686" stroke-width="2" stroke="hsl(6, 50%, 50%)" fill="none" opacity="0.85"></circle><circle r="9" cx="644" cy="684" fill="hsl(5, 50%, 50%)" opacity="0.55"></circle><circle r="7.5" cx="534" cy="255" stroke-width="2" stroke="hsl(4, 50%, 50%)" fill="none" opacity="0.28"></circle><circle r="8" cx="467" cy="747" stroke-width="2" stroke="hsl(3, 50%, 50%)" fill="none" opacity="0.41"></circle><circle r="9" cx="350" cy="690" fill="hsl(5, 50%, 50%)" opacity="0.44"></circle><circle r="10.5" cx="84" cy="19" stroke-width="2" stroke="hsl(8, 50%, 50%)" fill="none" opacity="0.70"></circle><circle r="9" cx="698" cy="180" fill="hsl(6, 50%, 50%)" opacity="0.62"></circle><circle r="11" cx="122" cy="723" stroke-width="2" stroke="hsl(7, 50%, 50%)" fill="none" opacity="0.83"></circle><circle r="9.5" cx="685" cy="454" fill="hsl(6, 50%, 50%)" opacity="0.14"></circle><circle r="9" cx="17" cy="91" fill="hsl(5, 50%, 50%)" opacity="0.97"></circle><circle r="7.5" cx="469" cy="640" fill="hsl(3, 50%, 50%)" opacity="0.90"></circle><circle r="9.5" cx="661" cy="582" stroke-width="2" stroke="hsl(5, 50%, 50%)" fill="none" opacity="0.72"></circle><circle r="9.5" cx="17" cy="436" fill="hsl(6, 50%, 50%)" opacity="0.23"></circle><circle r="9.5" cx="51" cy="534" stroke-width="2" stroke="hsl(6, 50%, 50%)" fill="none" opacity="0.64"></circle><circle r="7.5" cx="547" cy="753" stroke-width="2" stroke="hsl(4, 50%, 50%)" fill="none" opacity="0.61"></circle><circle r="10" cx="713" cy="242" stroke-width="2" stroke="hsl(6, 50%, 50%)" fill="none" opacity="0.78"></circle><circle r="11.5" cx="151" cy="20" stroke-width="2" stroke="hsl(8, 50%, 50%)" fill="none" opacity="0.13"></circle><circle r="9.5" cx="83" cy="464" fill="hsl(7, 50%, 50%)" opacity="0.76"></circle><circle r="9.5" cx="50" cy="381" stroke-width="2" stroke="hsl(6, 50%, 50%)" fill="none" opacity="0.51"></circle><circle r="11.5" cx="174" cy="325" fill="hsl(8, 50%, 50%)" opacity="0.25"></circle><circle r="9" cx="674" cy="377" fill="hsl(5, 50%, 50%)" opacity="0.30"></circle><circle r="11" cx="151" cy="421" stroke-width="2" stroke="hsl(7, 50%, 50%)" fill="none" opacity="0.26"></circle><circle r="7.5" cx="419" cy="414" fill="hsl(4, 50%, 50%)" opacity="0.28"></circle><circle r="8.5" cx="629" cy="334" stroke-width="2" stroke="hsl(5, 50%, 50%)" fill="none" opacity="0.66"></circle><circle r="10" cx="648" cy="16" stroke-width="2" stroke="hsl(7, 50%, 50%)" fill="none" opacity="0.63"></circle><circle r="9" cx="314" cy="687" fill="hsl(5, 50%, 50%)" opacity="0.66"></circle><circle r="9.5" cx="265" cy="214" fill="hsl(6, 50%, 50%)" opacity="0.49"></circle><circle r="9.5" cx="754" cy="330" stroke-width="2" stroke="hsl(6, 50%, 50%)" fill="none" opacity="0.27"></circle><circle r="8.5" cx="567" cy="350" fill="hsl(5, 50%, 50%)" opacity="0.13"></circle><circle r="11" cx="85" cy="57" stroke-width="2" stroke="hsl(7, 50%, 50%)" fill="none" opacity="0.89"></circle><circle r="7.5" cx="474" cy="499" fill="hsl(3, 50%, 50%)" opacity="0.77"></circle><circle r="9.5" cx="185" cy="14" fill="hsl(8, 50%, 50%)" opacity="0.42"></circle><circle r="10.5" cx="752" cy="19" fill="hsl(8, 50%, 50%)" opacity="0.69"></circle><circle r="9.5" cx="310" cy="532" fill="hsl(6, 50%, 50%)" opacity="0.41"></circle><circle r="8.5" cx="696" cy="348" fill="hsl(6, 50%, 50%)" opacity="0.61"></circle><circle r="9.5" cx="280" cy="175" stroke-width="2" stroke="hsl(6, 50%, 50%)" fill="none" opacity="0.97"></circle><circle r="7.5" cx="410" cy="244" stroke-width="2" stroke="hsl(4, 50%, 50%)" fill="none" opacity="0.53"></circle><circle r="8.5" cx="757" cy="366" stroke-width="2" stroke="hsl(6, 50%, 50%)" fill="none" opacity="0.62"></circle><circle r="10" cx="51" cy="215" fill="hsl(6, 50%, 50%)" opacity="0.76"></circle><circle r="7" cx="425" cy="756" fill="hsl(4, 50%, 50%)" opacity="0.55"></circle><circle r="10" cx="727" cy="161" stroke-width="2" stroke="hsl(7, 50%, 50%)" fill="none" opacity="0.91"></circle><circle r="10.5" cx="140" cy="756" stroke-width="2" stroke="hsl(7, 50%, 50%)" fill="none" opacity="0.88"></circle><circle r="8.5" cx="594" cy="183" fill="hsl(5, 50%, 50%)" opacity="0.36"></circle><circle r="9.5" cx="17" cy="402" stroke-width="2" stroke="hsl(6, 50%, 50%)" fill="none" opacity="0.96"></circle><circle r="8" cx="349" cy="435" fill="hsl(5, 50%, 50%)" opacity="0.82"></circle><circle r="8.5" cx="365" cy="300" fill="hsl(4, 50%, 50%)" opacity="0.49"></circle><circle r="8.5" cx="784" cy="308" fill="hsl(6, 50%, 50%)" opacity="0.32"></circle><circle r="9.5" cx="610" cy="533" stroke-width="2" stroke="hsl(5, 50%, 50%)" fill="none" opacity="0.80"></circle><circle r="10.5" cx="538" cy="75" stroke-width="2" stroke="hsl(7, 50%, 50%)" fill="none" opacity="0.24"></circle><circle r="9" cx="341" cy="398" fill="hsl(5, 50%, 50%)" opacity="0.41"></circle><circle r="10" cx="714" cy="665" fill="hsl(6, 50%, 50%)" opacity="0.16"></circle><circle r="9" cx="576" cy="662" fill="hsl(5, 50%, 50%)" opacity="0.87"></circle></svg>