<svg xmlns="http://www.w3.org/2000/svg" version="1.1" xmlns:xlink="http://www.w3.org/1999/xlink" xmlns:svgjs="http://svgjs.dev/svgjs" viewBox="0 0 800 800"><circle r="9.5" cx="118" cy="107" fill="hsl(23, 75%, 90%)" opacity="0.87"></circle><circle r="7.5" cx="384" cy="247" fill="hsl(22, 75%, 90%)" opacity="0.89"></circle><circle r="10.5" cx="219" cy="639" fill="hsl(23, 75%, 90%)" opacity="0.40"></circle><circle r="7.5" cx="17" cy="516" fill="hsl(22, 75%, 90%)" opacity="0.14"></circle><circle r="9.5" cx="291" cy="372" fill="hsl(23, 75%, 90%)" opacity="0.61"></circle><circle r="10" cx="207" cy="154" fill="hsl(23, 75%, 90%)" opacity="0.59"></circle><circle r="9.5" cx="268" cy="471" fill="hsl(23, 75%, 90%)" opacity="0.48"></circle><circle r="9" cx="677" cy="269" fill="hsl(23, 75%, 90%)" opacity="0.29"></circle><circle r="9.5" cx="782" cy="311" fill="hsl(23, 75%, 90%)" opacity="0.21"></circle><circle r="10.5" cx="214" cy="674" fill="hsl(23, 75%, 90%)" opacity="0.20"></circle><circle r="9.5" cx="721" cy="228" fill="hsl(23, 75%, 90%)" opacity="0.48"></circle><circle r="7.5" cx="45" cy="54" fill="hsl(22, 75%, 90%)" opacity="0.17"></circle><circle r="9.5" cx="240" cy="52" fill="hsl(23, 75%, 90%)" opacity="0.56"></circle><circle r="9.5" cx="622" cy="86" fill="hsl(23, 75%, 90%)" opacity="0.29"></circle><circle r="9.5" cx="234" cy="122" fill="hsl(23, 75%, 90%)" opacity="0.11"></circle><circle r="8.5" cx="277" cy="113" fill="hsl(23, 75%, 90%)" opacity="0.41"></circle><circle r="8" cx="785" cy="501" fill="hsl(23, 75%, 90%)" opacity="0.81"></circle><circle r="9.5" cx="54" cy="18" fill="hsl(23, 75%, 90%)" opacity="0.59"></circle><circle r="6.5" cx="385" cy="189" fill="hsl(22, 75%, 90%)" opacity="0.31"></circle><circle r="7.5" cx="295" cy="17" fill="hsl(22, 75%, 90%)" opacity="0.38"></circle><circle r="6.5" cx="451" cy="451" fill="hsl(22, 75%, 90%)" opacity="0.86"></circle><circle r="6" cx="486" cy="74" fill="hsl(22, 75%, 90%)" opacity="0.89"></circle><circle r="8.5" cx="79" cy="391" fill="hsl(22, 75%, 90%)" opacity="0.95"></circle><circle r="9.5" cx="753" cy="332" fill="hsl(23, 75%, 90%)" opacity="0.93"></circle><circle r="9.5" cx="653" cy="504" fill="hsl(23, 75%, 90%)" opacity="0.12"></circle><circle r="5.5" cx="406" cy="16" fill="hsl(22, 75%, 90%)" opacity="0.25"></circle><circle r="10" cx="685" cy="374" fill="hsl(23, 75%, 90%)" opacity="0.72"></circle><circle r="6.5" cx="425" cy="107" fill="hsl(22, 75%, 90%)" opacity="0.21"></circle><circle r="9" cx="298" cy="145" fill="hsl(23, 75%, 90%)" opacity="0.30"></circle><circle r="7.5" cx="542" cy="246" fill="hsl(22, 75%, 90%)" opacity="0.81"></circle><circle r="10.5" cx="243" cy="564" fill="hsl(23, 75%, 90%)" opacity="0.95"></circle><circle r="6" cx="438" cy="274" fill="hsl(22, 75%, 90%)" opacity="0.11"></circle><circle r="8.5" cx="665" cy="302" fill="hsl(23, 75%, 90%)" opacity="0.75"></circle><circle r="10" cx="685" cy="412" fill="hsl(23, 75%, 90%)" opacity="0.57"></circle><circle r="9" cx="89" cy="245" fill="hsl(22, 75%, 90%)" opacity="0.22"></circle><circle r="7" cx="383" cy="738" fill="hsl(22, 75%, 90%)" opacity="0.90"></circle><circle r="8" cx="363" cy="279" fill="hsl(22, 75%, 90%)" opacity="0.44"></circle><circle r="9.5" cx="240" cy="167" fill="hsl(23, 75%, 90%)" opacity="0.52"></circle><circle r="9.5" cx="133" cy="572" fill="hsl(23, 75%, 90%)" opacity="0.76"></circle><circle r="8.5" cx="701" cy="297" fill="hsl(23, 75%, 90%)" opacity="0.15"></circle><circle r="10" cx="208" cy="561" fill="hsl(23, 75%, 90%)" opacity="0.12"></circle><circle r="8" cx="54" cy="274" fill="hsl(22, 75%, 90%)" opacity="0.77"></circle><circle r="9.5" cx="754" cy="214" fill="hsl(23, 75%, 90%)" opacity="0.18"></circle><circle r="7.5" cx="351" cy="745" fill="hsl(22, 75%, 90%)" opacity="0.64"></circle><circle r="9.5" cx="297" cy="718" fill="hsl(23, 75%, 90%)" opacity="0.66"></circle><circle r="9" cx="614" cy="600" fill="hsl(23, 75%, 90%)" opacity="0.95"></circle><circle r="7.5" cx="382" cy="349" fill="hsl(22, 75%, 90%)" opacity="0.52"></circle><circle r="9.5" cx="114" cy="398" fill="hsl(23, 75%, 90%)" opacity="0.71"></circle><circle r="10" cx="277" cy="176" fill="hsl(23, 75%, 90%)" opacity="0.49"></circle><circle r="7" cx="407" cy="216" fill="hsl(22, 75%, 90%)" opacity="0.75"></circle><circle r="9" cx="619" cy="449" fill="hsl(23, 75%, 90%)" opacity="0.23"></circle><circle r="8.5" cx="111" cy="783" fill="hsl(23, 75%, 90%)" opacity="0.59"></circle><circle r="9.5" cx="687" cy="487" fill="hsl(23, 75%, 90%)" opacity="0.46"></circle><circle r="8.5" cx="730" cy="614" fill="hsl(23, 75%, 90%)" opacity="0.50"></circle><circle r="8" cx="559" cy="519" fill="hsl(22, 75%, 90%)" opacity="0.24"></circle><circle r="7.5" cx="786" cy="627" fill="hsl(23, 75%, 90%)" opacity="0.65"></circle><circle r="8" cx="726" cy="650" fill="hsl(23, 75%, 90%)" opacity="0.80"></circle><circle r="9.5" cx="165" cy="716" fill="hsl(23, 75%, 90%)" opacity="0.65"></circle><circle r="8" cx="652" cy="332" fill="hsl(23, 75%, 90%)" opacity="0.57"></circle><circle r="7.5" cx="313" cy="49" fill="hsl(22, 75%, 90%)" opacity="0.91"></circle><circle r="6.5" cx="495" cy="166" fill="hsl(22, 75%, 90%)" opacity="0.43"></circle><circle r="9" cx="652" cy="432" fill="hsl(23, 75%, 90%)" opacity="0.71"></circle><circle r="8" cx="54" cy="494" fill="hsl(22, 75%, 90%)" opacity="0.60"></circle><circle r="6" cx="409" cy="758" fill="hsl(22, 75%, 90%)" opacity="0.92"></circle><circle r="10" cx="142" cy="641" fill="hsl(23, 75%, 90%)" opacity="0.63"></circle><circle r="5.5" cx="520" cy="15" fill="hsl(22, 75%, 90%)" opacity="0.47"></circle><circle r="7.5" cx="572" cy="785" fill="hsl(22, 75%, 90%)" opacity="0.66"></circle><circle r="7.5" cx="549" cy="146" fill="hsl(22, 75%, 90%)" opacity="0.63"></circle><circle r="9.5" cx="145" cy="783" fill="hsl(23, 75%, 90%)" opacity="0.98"></circle><circle r="7" cx="437" cy="546" fill="hsl(22, 75%, 90%)" opacity="0.17"></circle><circle r="7" cx="787" cy="585" fill="hsl(23, 75%, 90%)" opacity="0.70"></circle><circle r="7.5" cx="576" cy="44" fill="hsl(22, 75%, 90%)" opacity="0.52"></circle><circle r="11.5" cx="716" cy="119" fill="hsl(23, 75%, 90%)" opacity="0.69"></circle><circle r="10" cx="167" cy="563" fill="hsl(23, 75%, 90%)" opacity="0.68"></circle><circle r="8" cx="517" cy="434" fill="hsl(22, 75%, 90%)" opacity="0.20"></circle><circle r="10.5" cx="233" cy="745" fill="hsl(23, 75%, 90%)" opacity="0.61"></circle><circle r="7.5" cx="409" cy="571" fill="hsl(22, 75%, 90%)" opacity="0.32"></circle><circle r="9" cx="651" cy="397" fill="hsl(23, 75%, 90%)" opacity="0.60"></circle><circle r="9" cx="621" cy="521" fill="hsl(23, 75%, 90%)" opacity="0.48"></circle><circle r="9.5" cx="729" cy="153" fill="hsl(23, 75%, 90%)" opacity="0.77"></circle><circle r="6.5" cx="477" cy="695" fill="hsl(22, 75%, 90%)" opacity="0.23"></circle><circle r="8.5" cx="599" cy="288" fill="hsl(22, 75%, 90%)" opacity="0.99"></circle><circle r="8" cx="545" cy="111" fill="hsl(22, 75%, 90%)" opacity="0.38"></circle><circle r="7.5" cx="18" cy="557" fill="hsl(22, 75%, 90%)" opacity="0.77"></circle><circle r="9" cx="330" cy="377" fill="hsl(22, 75%, 90%)" opacity="0.40"></circle><circle r="9" cx="668" cy="171" fill="hsl(23, 75%, 90%)" opacity="0.90"></circle><circle r="7" cx="519" cy="753" fill="hsl(22, 75%, 90%)" opacity="0.52"></circle><circle r="10" cx="644" cy="145" fill="hsl(23, 75%, 90%)" opacity="0.85"></circle><circle r="10.5" cx="267" cy="406" fill="hsl(23, 75%, 90%)" opacity="0.37"></circle><circle r="9.5" cx="157" cy="208" fill="hsl(23, 75%, 90%)" opacity="0.17"></circle><circle r="7" cx="21" cy="333" fill="hsl(22, 75%, 90%)" opacity="0.18"></circle><circle r="10.5" cx="240" cy="338" fill="hsl(23, 75%, 90%)" opacity="0.81"></circle><circle r="7.5" cx="524" cy="317" fill="hsl(22, 75%, 90%)" opacity="0.56"></circle><circle r="10" cx="225" cy="18" fill="hsl(23, 75%, 90%)" opacity="0.90"></circle><circle r="7" cx="519" cy="140" fill="hsl(22, 75%, 90%)" opacity="0.73"></circle><circle r="10" cx="270" cy="237" fill="hsl(23, 75%, 90%)" opacity="0.59"></circle><circle r="5.5" cx="401" cy="787" fill="hsl(22, 75%, 90%)" opacity="0.21"></circle><circle r="6.5" cx="502" cy="196" fill="hsl(22, 75%, 90%)" opacity="0.70"></circle><circle r="7" cx="421" cy="474" fill="hsl(22, 75%, 90%)" opacity="0.28"></circle><circle r="10" cx="188" cy="256" fill="hsl(23, 75%, 90%)" opacity="0.14"></circle><circle r="10" cx="148" cy="680" fill="hsl(23, 75%, 90%)" opacity="0.46"></circle><circle r="8" cx="19" cy="16" fill="hsl(23, 75%, 90%)" opacity="0.14"></circle><circle r="9" cx="644" cy="580" fill="hsl(23, 75%, 90%)" opacity="0.42"></circle><circle r="8.5" cx="580" cy="135" fill="hsl(23, 75%, 90%)" opacity="0.23"></circle><circle r="6.5" cx="421" cy="247" fill="hsl(22, 75%, 90%)" opacity="0.84"></circle><circle r="10" cx="289" cy="272" fill="hsl(23, 75%, 90%)" opacity="0.34"></circle><circle r="7" cx="525" cy="218" fill="hsl(22, 75%, 90%)" opacity="0.13"></circle><circle r="8.5" cx="349" cy="451" fill="hsl(22, 75%, 90%)" opacity="0.97"></circle><circle r="8" cx="716" cy="755" fill="hsl(23, 75%, 90%)" opacity="0.60"></circle><circle r="10.5" cx="182" cy="85" fill="hsl(23, 75%, 90%)" opacity="0.33"></circle><circle r="8.5" cx="622" cy="751" fill="hsl(23, 75%, 90%)" opacity="0.28"></circle><circle r="9.5" cx="190" cy="621" fill="hsl(23, 75%, 90%)" opacity="0.65"></circle><circle r="8" cx="526" cy="507" fill="hsl(22, 75%, 90%)" opacity="0.45"></circle><circle r="9.5" cx="782" cy="274" fill="hsl(23, 75%, 90%)" opacity="0.17"></circle><circle r="7" cx="484" cy="133" fill="hsl(22, 75%, 90%)" opacity="0.94"></circle><circle r="8.5" cx="551" cy="341" fill="hsl(22, 75%, 90%)" opacity="0.12"></circle><circle r="6.5" cx="469" cy="784" fill="hsl(22, 75%, 90%)" opacity="0.15"></circle><circle r="9.5" cx="238" cy="701" fill="hsl(23, 75%, 90%)" opacity="0.52"></circle><circle r="10.5" cx="265" cy="533" fill="hsl(23, 75%, 90%)" opacity="0.74"></circle><circle r="8" cx="358" cy="633" fill="hsl(22, 75%, 90%)" opacity="0.48"></circle><circle r="7.5" cx="609" cy="785" fill="hsl(23, 75%, 90%)" opacity="0.47"></circle><circle r="8.5" cx="642" cy="654" fill="hsl(23, 75%, 90%)" opacity="0.14"></circle><circle r="8.5" cx="722" cy="321" fill="hsl(23, 75%, 90%)" opacity="0.91"></circle><circle r="9" cx="326" cy="511" fill="hsl(22, 75%, 90%)" opacity="0.72"></circle><circle r="8.5" cx="276" cy="51" fill="hsl(22, 75%, 90%)" opacity="0.71"></circle><circle r="9" cx="78" cy="613" fill="hsl(22, 75%, 90%)" opacity="0.13"></circle><circle r="6.5" cx="408" cy="372" fill="hsl(22, 75%, 90%)" opacity="0.66"></circle><circle r="9" cx="756" cy="644" fill="hsl(23, 75%, 90%)" opacity="0.73"></circle><circle r="8.5" cx="559" cy="206" fill="hsl(22, 75%, 90%)" opacity="0.86"></circle><circle r="10" cx="141" cy="468" fill="hsl(23, 75%, 90%)" opacity="0.51"></circle><circle r="9.5" cx="716" cy="265" fill="hsl(23, 75%, 90%)" opacity="0.33"></circle><circle r="9.5" cx="190" cy="589" fill="hsl(23, 75%, 90%)" opacity="0.22"></circle><circle r="9" cx="102" cy="176" fill="hsl(22, 75%, 90%)" opacity="0.75"></circle><circle r="8.5" cx="513" cy="357" fill="hsl(22, 75%, 90%)" opacity="0.96"></circle><circle r="6" cx="402" cy="164" fill="hsl(22, 75%, 90%)" opacity="0.75"></circle><circle r="8" cx="652" cy="364" fill="hsl(23, 75%, 90%)" opacity="0.28"></circle><circle r="5.5" cx="369" cy="16" fill="hsl(22, 75%, 90%)" opacity="0.28"></circle><circle r="8" cx="383" cy="600" fill="hsl(22, 75%, 90%)" opacity="0.81"></circle><circle r="9.5" cx="751" cy="446" fill="hsl(23, 75%, 90%)" opacity="0.63"></circle><circle r="10" cx="719" cy="508" fill="hsl(23, 75%, 90%)" opacity="0.62"></circle><circle r="9.5" cx="261" cy="596" fill="hsl(23, 75%, 90%)" opacity="0.41"></circle><circle r="11" cx="205" cy="498" fill="hsl(23, 75%, 90%)" opacity="0.90"></circle><circle r="6" cx="464" cy="46" fill="hsl(22, 75%, 90%)" opacity="0.74"></circle><circle r="8" cx="586" cy="621" fill="hsl(22, 75%, 90%)" opacity="0.97"></circle><circle r="7" cx="523" cy="77" fill="hsl(22, 75%, 90%)" opacity="0.53"></circle><circle r="10" cx="277" cy="338" fill="hsl(23, 75%, 90%)" opacity="0.84"></circle><circle r="9.5" cx="757" cy="175" fill="hsl(23, 75%, 90%)" opacity="0.22"></circle><circle r="11.5" cx="205" cy="434" fill="hsl(23, 75%, 90%)" opacity="0.57"></circle><circle r="10" cx="686" cy="450" fill="hsl(23, 75%, 90%)" opacity="0.88"></circle><circle r="6" cx="468" cy="101" fill="hsl(22, 75%, 90%)" opacity="0.33"></circle><circle r="9.5" cx="303" cy="539" fill="hsl(23, 75%, 90%)" opacity="0.93"></circle><circle r="9.5" cx="741" cy="683" fill="hsl(23, 75%, 90%)" opacity="0.55"></circle><circle r="8" cx="583" cy="103" fill="hsl(23, 75%, 90%)" opacity="0.76"></circle><circle r="9" cx="315" cy="342" fill="hsl(23, 75%, 90%)" opacity="0.97"></circle><circle r="10" cx="156" cy="115" fill="hsl(23, 75%, 90%)" opacity="0.28"></circle><circle r="8" cx="381" cy="313" fill="hsl(22, 75%, 90%)" opacity="0.11"></circle><circle r="8" cx="634" cy="15" fill="hsl(23, 75%, 90%)" opacity="0.95"></circle><circle r="9" cx="655" cy="748" fill="hsl(23, 75%, 90%)" opacity="0.96"></circle><circle r="8.5" cx="687" cy="738" fill="hsl(23, 75%, 90%)" opacity="0.45"></circle><circle r="9.5" cx="140" cy="178" fill="hsl(23, 75%, 90%)" opacity="0.79"></circle><circle r="9.5" cx="718" cy="430" fill="hsl(23, 75%, 90%)" opacity="0.58"></circle><circle r="8" cx="378" cy="424" fill="hsl(22, 75%, 90%)" opacity="0.54"></circle><circle r="8.5" cx="339" cy="549" fill="hsl(22, 75%, 90%)" opacity="0.53"></circle><circle r="8" cx="571" cy="172" fill="hsl(22, 75%, 90%)" opacity="0.57"></circle><circle r="7" cx="485" cy="226" fill="hsl(22, 75%, 90%)" opacity="0.66"></circle><circle r="8" cx="785" cy="196" fill="hsl(23, 75%, 90%)" opacity="0.91"></circle><circle r="10.5" cx="247" cy="499" fill="hsl(23, 75%, 90%)" opacity="0.47"></circle><circle r="7" cx="414" cy="670" fill="hsl(22, 75%, 90%)" opacity="0.67"></circle><circle r="6.5" cx="484" cy="594" fill="hsl(22, 75%, 90%)" opacity="0.23"></circle><circle r="8" cx="331" cy="712" fill="hsl(22, 75%, 90%)" opacity="0.85"></circle><circle r="10" cx="708" cy="16" fill="hsl(23, 75%, 90%)" opacity="0.16"></circle><circle r="10.5" cx="722" cy="46" fill="hsl(23, 75%, 90%)" opacity="0.53"></circle><circle r="6" cx="395" cy="130" fill="hsl(22, 75%, 90%)" opacity="0.52"></circle><circle r="8.5" cx="584" cy="430" fill="hsl(22, 75%, 90%)" opacity="0.85"></circle><circle r="7" cx="594" cy="219" fill="hsl(22, 75%, 90%)" opacity="0.23"></circle><circle r="7.5" cx="61" cy="168" fill="hsl(22, 75%, 90%)" opacity="0.34"></circle><circle r="10.5" cx="226" cy="529" fill="hsl(23, 75%, 90%)" opacity="0.73"></circle><circle r="6.5" cx="503" cy="784" fill="hsl(22, 75%, 90%)" opacity="0.66"></circle><circle r="6.5" cx="422" cy="728" fill="hsl(22, 75%, 90%)" opacity="0.60"></circle><circle r="6.5" cx="492" cy="666" fill="hsl(22, 75%, 90%)" opacity="0.11"></circle><circle r="9.5" cx="100" cy="360" fill="hsl(23, 75%, 90%)" opacity="0.62"></circle><circle r="8.5" cx="316" cy="113" fill="hsl(22, 75%, 90%)" opacity="0.67"></circle><circle r="11.5" cx="189" cy="399" fill="hsl(23, 75%, 90%)" opacity="0.10"></circle><circle r="6" cx="446" cy="417" fill="hsl(22, 75%, 90%)" opacity="0.39"></circle><circle r="9.5" cx="309" cy="242" fill="hsl(23, 75%, 90%)" opacity="0.65"></circle><circle r="7.5" cx="570" cy="272" fill="hsl(22, 75%, 90%)" opacity="0.61"></circle><circle r="7" cx="15" cy="49" fill="hsl(22, 75%, 90%)" opacity="0.42"></circle><circle r="7" cx="487" cy="460" fill="hsl(22, 75%, 90%)" opacity="0.85"></circle><circle r="10" cx="144" cy="80" fill="hsl(23, 75%, 90%)" opacity="0.70"></circle><circle r="9" cx="88" cy="431" fill="hsl(22, 75%, 90%)" opacity="0.54"></circle><circle r="7.5" cx="17" cy="224" fill="hsl(22, 75%, 90%)" opacity="0.74"></circle><circle r="8" cx="77" cy="657" fill="hsl(22, 75%, 90%)" opacity="0.53"></circle><circle r="8" cx="53" cy="238" fill="hsl(22, 75%, 90%)" opacity="0.85"></circle><circle r="8.5" cx="83" cy="207" fill="hsl(22, 75%, 90%)" opacity="0.24"></circle><circle r="8" cx="549" cy="413" fill="hsl(22, 75%, 90%)" opacity="0.69"></circle><circle r="7.5" cx="17" cy="405" fill="hsl(22, 75%, 90%)" opacity="0.57"></circle><circle r="8.5" cx="617" cy="414" fill="hsl(23, 75%, 90%)" opacity="0.23"></circle><circle r="9" cx="726" cy="190" fill="hsl(23, 75%, 90%)" opacity="0.84"></circle><circle r="7.5" cx="17" cy="702" fill="hsl(22, 75%, 90%)" opacity="0.34"></circle><circle r="7.5" cx="507" cy="252" fill="hsl(22, 75%, 90%)" opacity="0.40"></circle><circle r="10.5" cx="230" cy="303" fill="hsl(23, 75%, 90%)" opacity="0.61"></circle><circle r="10.5" cx="783" cy="48" fill="hsl(24, 75%, 90%)" opacity="0.14"></circle><circle r="9.5" cx="751" cy="370" fill="hsl(23, 75%, 90%)" opacity="0.54"></circle><circle r="11" cx="186" cy="530" fill="hsl(23, 75%, 90%)" opacity="0.81"></circle><circle r="9" cx="262" cy="143" fill="hsl(23, 75%, 90%)" opacity="0.89"></circle><circle r="6" cx="20" cy="153" fill="hsl(22, 75%, 90%)" opacity="0.78"></circle><circle r="7.5" cx="368" cy="151" fill="hsl(22, 75%, 90%)" opacity="0.30"></circle><circle r="7.5" cx="19" cy="442" fill="hsl(22, 75%, 90%)" opacity="0.25"></circle><circle r="6" cx="451" cy="671" fill="hsl(22, 75%, 90%)" opacity="0.77"></circle><circle r="7" cx="482" cy="424" fill="hsl(22, 75%, 90%)" opacity="0.86"></circle><circle r="8" cx="625" cy="681" fill="hsl(23, 75%, 90%)" opacity="0.85"></circle><circle r="8" cx="334" cy="146" fill="hsl(22, 75%, 90%)" opacity="0.85"></circle><circle r="8.5" cx="702" cy="588" fill="hsl(23, 75%, 90%)" opacity="0.36"></circle><circle r="9" cx="649" cy="542" fill="hsl(23, 75%, 90%)" opacity="0.51"></circle><circle r="6.5" cx="48" cy="785" fill="hsl(22, 75%, 90%)" opacity="0.98"></circle><circle r="7.5" cx="50" cy="92" fill="hsl(22, 75%, 90%)" opacity="0.63"></circle><circle r="10" cx="746" cy="292" fill="hsl(23, 75%, 90%)" opacity="0.35"></circle><circle r="8" cx="353" cy="486" fill="hsl(22, 75%, 90%)" opacity="0.94"></circle><circle r="8.5" cx="88" cy="737" fill="hsl(22, 75%, 90%)" opacity="0.17"></circle><circle r="6.5" cx="424" cy="304" fill="hsl(22, 75%, 90%)" opacity="0.29"></circle><circle r="11.5" cx="718" cy="81" fill="hsl(23, 75%, 90%)" opacity="0.50"></circle><circle r="8" cx="375" cy="560" fill="hsl(22, 75%, 90%)" opacity="0.40"></circle><circle r="8" cx="276" cy="785" fill="hsl(23, 75%, 90%)" opacity="0.78"></circle><circle r="7.5" cx="47" cy="382" fill="hsl(22, 75%, 90%)" opacity="0.57"></circle><circle r="10" cx="615" cy="121" fill="hsl(23, 75%, 90%)" opacity="0.69"></circle><circle r="9" cx="85" cy="511" fill="hsl(22, 75%, 90%)" opacity="0.74"></circle><circle r="8" cx="547" cy="377" fill="hsl(22, 75%, 90%)" opacity="0.62"></circle><circle r="11" cx="686" cy="94" fill="hsl(23, 75%, 90%)" opacity="0.41"></circle><circle r="10.5" cx="170" cy="51" fill="hsl(23, 75%, 90%)" opacity="0.48"></circle><circle r="9" cx="676" cy="564" fill="hsl(23, 75%, 90%)" opacity="0.85"></circle><circle r="7" cx="457" cy="486" fill="hsl(22, 75%, 90%)" opacity="0.89"></circle><circle r="7.5" cx="378" cy="668" fill="hsl(22, 75%, 90%)" opacity="0.25"></circle><circle r="6.5" cx="412" cy="334" fill="hsl(22, 75%, 90%)" opacity="0.17"></circle><circle r="8.5" cx="643" cy="619" fill="hsl(23, 75%, 90%)" opacity="0.85"></circle><circle r="9" cx="652" cy="43" fill="hsl(23, 75%, 90%)" opacity="0.67"></circle><circle r="6" cx="367" cy="76" fill="hsl(22, 75%, 90%)" opacity="0.50"></circle><circle r="7" cx="431" cy="640" fill="hsl(22, 75%, 90%)" opacity="0.80"></circle><circle r="9" cx="625" cy="310" fill="hsl(23, 75%, 90%)" opacity="0.69"></circle><circle r="7" cx="506" cy="106" fill="hsl(22, 75%, 90%)" opacity="0.28"></circle><circle r="7.5" cx="81" cy="779" fill="hsl(22, 75%, 90%)" opacity="0.71"></circle><circle r="9.5" cx="123" cy="259" fill="hsl(23, 75%, 90%)" opacity="0.38"></circle><circle r="9.5" cx="88" cy="21" fill="hsl(23, 75%, 90%)" opacity="0.19"></circle><circle r="7.5" cx="48" cy="202" fill="hsl(22, 75%, 90%)" opacity="0.72"></circle><circle r="10" cx="285" cy="650" fill="hsl(23, 75%, 90%)" opacity="0.15"></circle><circle r="8.5" cx="53" cy="582" fill="hsl(22, 75%, 90%)" opacity="0.18"></circle><circle r="8.5" cx="346" cy="246" fill="hsl(22, 75%, 90%)" opacity="0.58"></circle><circle r="11.5" cx="783" cy="83" fill="hsl(23, 75%, 90%)" opacity="0.61"></circle><circle r="7" cx="523" cy="651" fill="hsl(22, 75%, 90%)" opacity="0.58"></circle><circle r="8.5" cx="587" cy="465" fill="hsl(22, 75%, 90%)" opacity="0.54"></circle><circle r="7" cx="430" cy="187" fill="hsl(22, 75%, 90%)" opacity="0.42"></circle><circle r="8.5" cx="76" cy="58" fill="hsl(23, 75%, 90%)" opacity="0.86"></circle><circle r="8" cx="344" cy="672" fill="hsl(22, 75%, 90%)" opacity="0.96"></circle><circle r="7" cx="48" cy="534" fill="hsl(22, 75%, 90%)" opacity="0.65"></circle><circle r="9.5" cx="654" cy="468" fill="hsl(23, 75%, 90%)" opacity="0.66"></circle><circle r="10" cx="292" cy="209" fill="hsl(23, 75%, 90%)" opacity="0.11"></circle><circle r="10" cx="134" cy="46" fill="hsl(23, 75%, 90%)" opacity="0.82"></circle><circle r="7.5" cx="333" cy="81" fill="hsl(22, 75%, 90%)" opacity="0.47"></circle><circle r="9" cx="245" cy="780" fill="hsl(23, 75%, 90%)" opacity="0.31"></circle><circle r="10.5" cx="119" cy="17" fill="hsl(23, 75%, 90%)" opacity="0.38"></circle><circle r="9" cx="751" cy="751" fill="hsl(23, 75%, 90%)" opacity="0.16"></circle><circle r="6.5" cx="387" cy="46" fill="hsl(22, 75%, 90%)" opacity="0.52"></circle><circle r="11" cx="183" cy="467" fill="hsl(23, 75%, 90%)" opacity="0.70"></circle><circle r="9" cx="783" cy="388" fill="hsl(23, 75%, 90%)" opacity="0.57"></circle><circle r="7" cx="575" cy="241" fill="hsl(22, 75%, 90%)" opacity="0.35"></circle><circle r="10" cx="219" cy="88" fill="hsl(23, 75%, 90%)" opacity="0.28"></circle><circle r="8" cx="532" cy="543" fill="hsl(22, 75%, 90%)" opacity="0.23"></circle><circle r="9.5" cx="304" cy="307" fill="hsl(23, 75%, 90%)" opacity="0.65"></circle><circle r="6.5" cx="331" cy="16" fill="hsl(22, 75%, 90%)" opacity="0.56"></circle><circle r="8" cx="533" cy="281" fill="hsl(22, 75%, 90%)" opacity="0.67"></circle><circle r="6.5" cx="18" cy="119" fill="hsl(22, 75%, 90%)" opacity="0.14"></circle><circle r="7" cx="494" cy="629" fill="hsl(22, 75%, 90%)" opacity="0.98"></circle><circle r="8.5" cx="617" cy="380" fill="hsl(23, 75%, 90%)" opacity="0.60"></circle><circle r="8" cx="350" cy="181" fill="hsl(22, 75%, 90%)" opacity="0.76"></circle><circle r="8" cx="555" cy="484" fill="hsl(22, 75%, 90%)" opacity="0.83"></circle><circle r="8" cx="521" cy="471" fill="hsl(22, 75%, 90%)" opacity="0.55"></circle><circle r="8" cx="584" cy="582" fill="hsl(22, 75%, 90%)" opacity="0.99"></circle><circle r="10.5" cx="253" cy="269" fill="hsl(23, 75%, 90%)" opacity="0.72"></circle><circle r="8" cx="756" cy="516" fill="hsl(23, 75%, 90%)" opacity="0.13"></circle><circle r="8.5" cx="756" cy="716" fill="hsl(23, 75%, 90%)" opacity="0.56"></circle><circle r="10.5" cx="782" cy="16" fill="hsl(24, 75%, 90%)" opacity="0.21"></circle><circle r="9.5" cx="111" cy="540" fill="hsl(23, 75%, 90%)" opacity="0.31"></circle><circle r="9.5" cx="673" cy="16" fill="hsl(23, 75%, 90%)" opacity="0.74"></circle><circle r="9" cx="672" cy="603" fill="hsl(23, 75%, 90%)" opacity="0.72"></circle><circle r="8.5" cx="625" cy="716" fill="hsl(23, 75%, 90%)" opacity="0.56"></circle><circle r="9.5" cx="312" cy="474" fill="hsl(23, 75%, 90%)" opacity="0.23"></circle><circle r="8" cx="61" cy="349" fill="hsl(22, 75%, 90%)" opacity="0.83"></circle><circle r="8" cx="515" cy="396" fill="hsl(22, 75%, 90%)" opacity="0.75"></circle><circle r="7.5" cx="597" cy="16" fill="hsl(22, 75%, 90%)" opacity="0.48"></circle><circle r="9" cx="638" cy="277" fill="hsl(23, 75%, 90%)" opacity="0.39"></circle><circle r="9" cx="316" cy="748" fill="hsl(23, 75%, 90%)" opacity="0.88"></circle><circle r="6.5" cx="408" cy="404" fill="hsl(22, 75%, 90%)" opacity="0.40"></circle><circle r="9" cx="661" cy="208" fill="hsl(23, 75%, 90%)" opacity="0.42"></circle><circle r="6.5" cx="455" cy="613" fill="hsl(22, 75%, 90%)" opacity="0.84"></circle><circle r="6" cx="465" cy="644" fill="hsl(22, 75%, 90%)" opacity="0.96"></circle><circle r="7.5" cx="18" cy="297" fill="hsl(22, 75%, 90%)" opacity="0.19"></circle><circle r="7.5" cx="367" cy="216" fill="hsl(22, 75%, 90%)" opacity="0.55"></circle><circle r="7" cx="542" cy="578" fill="hsl(22, 75%, 90%)" opacity="0.20"></circle><circle r="9.5" cx="305" cy="405" fill="hsl(23, 75%, 90%)" opacity="0.74"></circle><circle r="11" cx="228" cy="403" fill="hsl(23, 75%, 90%)" opacity="0.71"></circle><circle r="7" cx="492" cy="496" fill="hsl(22, 75%, 90%)" opacity="0.87"></circle><circle r="6.5" cx="461" cy="724" fill="hsl(22, 75%, 90%)" opacity="0.48"></circle><circle r="9" cx="687" cy="236" fill="hsl(23, 75%, 90%)" opacity="0.54"></circle><circle r="9" cx="783" cy="781" fill="hsl(23, 75%, 90%)" opacity="0.73"></circle><circle r="9.5" cx="128" cy="143" fill="hsl(23, 75%, 90%)" opacity="0.40"></circle><circle r="7.5" cx="590" cy="726" fill="hsl(22, 75%, 90%)" opacity="0.89"></circle><circle r="10.5" cx="253" cy="204" fill="hsl(23, 75%, 90%)" opacity="0.29"></circle><circle r="10" cx="205" cy="53" fill="hsl(23, 75%, 90%)" opacity="0.28"></circle><circle r="10.5" cx="225" cy="467" fill="hsl(23, 75%, 90%)" opacity="0.33"></circle><circle r="8.5" cx="95" cy="579" fill="hsl(22, 75%, 90%)" opacity="0.70"></circle><circle r="9.5" cx="139" cy="367" fill="hsl(23, 75%, 90%)" opacity="0.82"></circle><circle r="7.5" cx="54" cy="130" fill="hsl(22, 75%, 90%)" opacity="0.88"></circle><circle r="10" cx="687" cy="336" fill="hsl(23, 75%, 90%)" opacity="0.45"></circle><circle r="9.5" cx="183" cy="686" fill="hsl(23, 75%, 90%)" opacity="0.18"></circle><circle r="10" cx="96" cy="471" fill="hsl(22, 75%, 90%)" opacity="0.40"></circle><circle r="8.5" cx="699" cy="626" fill="hsl(23, 75%, 90%)" opacity="0.60"></circle><circle r="8" cx="384" cy="462" fill="hsl(22, 75%, 90%)" opacity="0.25"></circle><circle r="10" cx="125" cy="713" fill="hsl(23, 75%, 90%)" opacity="0.83"></circle><circle r="6" cx="408" cy="74" fill="hsl(22, 75%, 90%)" opacity="0.52"></circle><circle r="10.5" cx="784" cy="118" fill="hsl(23, 75%, 90%)" opacity="0.63"></circle><circle r="10.5" cx="147" cy="532" fill="hsl(23, 75%, 90%)" opacity="0.45"></circle><circle r="8.5" cx="747" cy="784" fill="hsl(23, 75%, 90%)" opacity="0.82"></circle><circle r="11.5" cx="163" cy="322" fill="hsl(23, 75%, 90%)" opacity="1.00"></circle><circle r="7" cx="469" cy="257" fill="hsl(22, 75%, 90%)" opacity="0.41"></circle><circle r="6" cx="502" cy="45" fill="hsl(22, 75%, 90%)" opacity="0.78"></circle><circle r="9" cx="91" cy="138" fill="hsl(22, 75%, 90%)" opacity="0.94"></circle><circle r="9" cx="120" cy="607" fill="hsl(23, 75%, 90%)" opacity="0.80"></circle><circle r="6" cx="445" cy="76" fill="hsl(22, 75%, 90%)" opacity="0.87"></circle><circle r="7" cx="474" cy="559" fill="hsl(22, 75%, 90%)" opacity="0.16"></circle><circle r="7.5" cx="48" cy="631" fill="hsl(22, 75%, 90%)" opacity="0.25"></circle><circle r="7.5" cx="539" cy="45" fill="hsl(22, 75%, 90%)" opacity="0.60"></circle><circle r="9" cx="326" cy="277" fill="hsl(22, 75%, 90%)" opacity="0.82"></circle><circle r="10.5" cx="217" cy="195" fill="hsl(23, 75%, 90%)" opacity="0.45"></circle><circle r="10" cx="275" cy="688" fill="hsl(23, 75%, 90%)" opacity="0.30"></circle><circle r="8" cx="329" cy="612" fill="hsl(22, 75%, 90%)" opacity="0.82"></circle><circle r="8" cx="553" cy="676" fill="hsl(22, 75%, 90%)" opacity="0.31"></circle><circle r="9" cx="608" cy="155" fill="hsl(23, 75%, 90%)" opacity="0.18"></circle><circle r="7.5" cx="556" cy="606" fill="hsl(22, 75%, 90%)" opacity="0.83"></circle><circle r="10.5" cx="158" cy="281" fill="hsl(23, 75%, 90%)" opacity="0.82"></circle><circle r="8.5" cx="589" cy="501" fill="hsl(22, 75%, 90%)" opacity="0.18"></circle><circle r="11.5" cx="749" cy="98" fill="hsl(23, 75%, 90%)" opacity="0.72"></circle><circle r="9.5" cx="610" cy="253" fill="hsl(23, 75%, 90%)" opacity="0.84"></circle><circle r="9.5" cx="125" cy="435" fill="hsl(23, 75%, 90%)" opacity="0.22"></circle><circle r="8.5" cx="723" cy="719" fill="hsl(23, 75%, 90%)" opacity="0.14"></circle><circle r="8" cx="614" cy="640" fill="hsl(23, 75%, 90%)" opacity="0.98"></circle><circle r="7.5" cx="600" cy="189" fill="hsl(23, 75%, 90%)" opacity="0.11"></circle><circle r="10.5" cx="206" cy="715" fill="hsl(23, 75%, 90%)" opacity="0.27"></circle><circle r="8" cx="560" cy="709" fill="hsl(22, 75%, 90%)" opacity="0.47"></circle><circle r="8.5" cx="552" cy="449" fill="hsl(22, 75%, 90%)" opacity="0.95"></circle><circle r="9" cx="683" cy="525" fill="hsl(23, 75%, 90%)" opacity="0.17"></circle><circle r="7" cx="350" cy="347" fill="hsl(22, 75%, 90%)" opacity="0.40"></circle><circle r="9" cx="277" cy="753" fill="hsl(23, 75%, 90%)" opacity="0.30"></circle><circle r="7.5" cx="401" cy="534" fill="hsl(22, 75%, 90%)" opacity="0.50"></circle><circle r="7.5" cx="589" cy="758" fill="hsl(22, 75%, 90%)" opacity="0.69"></circle><circle r="7" cx="17" cy="367" fill="hsl(22, 75%, 90%)" opacity="0.89"></circle><circle r="8.5" cx="618" cy="346" fill="hsl(23, 75%, 90%)" opacity="0.55"></circle><circle r="8.5" cx="106" cy="638" fill="hsl(23, 75%, 90%)" opacity="0.39"></circle><circle r="10" cx="751" cy="408" fill="hsl(23, 75%, 90%)" opacity="0.92"></circle><circle r="7.5" cx="519" cy="689" fill="hsl(22, 75%, 90%)" opacity="0.32"></circle><circle r="8.5" cx="696" cy="701" fill="hsl(23, 75%, 90%)" opacity="0.62"></circle><circle r="6.5" cx="447" cy="224" fill="hsl(22, 75%, 90%)" opacity="0.19"></circle><circle r="7" cx="490" cy="324" fill="hsl(22, 75%, 90%)" opacity="0.16"></circle><circle r="11" cx="192" cy="296" fill="hsl(23, 75%, 90%)" opacity="0.21"></circle><circle r="8.5" cx="708" cy="549" fill="hsl(23, 75%, 90%)" opacity="0.19"></circle><circle r="10.5" cx="249" cy="664" fill="hsl(23, 75%, 90%)" opacity="0.74"></circle><circle r="9" cx="649" cy="244" fill="hsl(23, 75%, 90%)" opacity="0.53"></circle><circle r="8.5" cx="784" cy="541" fill="hsl(23, 75%, 90%)" opacity="0.56"></circle><circle r="10.5" cx="195" cy="120" fill="hsl(23, 75%, 90%)" opacity="0.45"></circle><circle r="9.5" cx="310" cy="681" fill="hsl(23, 75%, 90%)" opacity="0.28"></circle><circle r="6.5" cx="17" cy="187" fill="hsl(22, 75%, 90%)" opacity="0.35"></circle><circle r="10.5" cx="152" cy="401" fill="hsl(23, 75%, 90%)" opacity="0.93"></circle><circle r="9" cx="621" cy="484" fill="hsl(23, 75%, 90%)" opacity="0.38"></circle><circle r="8" cx="53" cy="716" fill="hsl(22, 75%, 90%)" opacity="0.66"></circle><circle r="6.5" cx="447" cy="754" fill="hsl(22, 75%, 90%)" opacity="0.81"></circle><circle r="8" cx="740" cy="542" fill="hsl(23, 75%, 90%)" opacity="0.29"></circle><circle r="9.5" cx="293" cy="612" fill="hsl(23, 75%, 90%)" opacity="0.66"></circle><circle r="8" cx="673" cy="643" fill="hsl(23, 75%, 90%)" opacity="0.80"></circle><circle r="9" cx="121" cy="749" fill="hsl(23, 75%, 90%)" opacity="0.66"></circle><circle r="7" cx="18" cy="664" fill="hsl(22, 75%, 90%)" opacity="0.46"></circle><circle r="7" cx="464" cy="522" fill="hsl(22, 75%, 90%)" opacity="0.63"></circle><circle r="6" cx="427" cy="147" fill="hsl(22, 75%, 90%)" opacity="0.98"></circle><circle r="11" cx="229" cy="234" fill="hsl(23, 75%, 90%)" opacity="0.71"></circle><circle r="10" cx="288" cy="503" fill="hsl(23, 75%, 90%)" opacity="0.79"></circle><circle r="8" cx="785" cy="742" fill="hsl(23, 75%, 90%)" opacity="0.95"></circle><circle r="6.5" cx="466" cy="194" fill="hsl(22, 75%, 90%)" opacity="0.95"></circle><circle r="8" cx="556" cy="748" fill="hsl(22, 75%, 90%)" opacity="0.33"></circle><circle r="8" cx="591" cy="692" fill="hsl(22, 75%, 90%)" opacity="0.52"></circle><circle r="7" cx="400" cy="279" fill="hsl(22, 75%, 90%)" opacity="0.79"></circle><circle r="6.5" cx="16" cy="779" fill="hsl(22, 75%, 90%)" opacity="0.98"></circle><circle r="10.5" cx="155" cy="16" fill="hsl(23, 75%, 90%)" opacity="0.76"></circle><circle r="8.5" cx="52" cy="420" fill="hsl(22, 75%, 90%)" opacity="0.59"></circle><circle r="8" cx="56" cy="311" fill="hsl(22, 75%, 90%)" opacity="0.90"></circle><circle r="10.5" cx="651" cy="110" fill="hsl(23, 75%, 90%)" opacity="0.93"></circle><circle r="7.5" cx="712" cy="785" fill="hsl(23, 75%, 90%)" opacity="0.17"></circle><circle r="7.5" cx="391" cy="498" fill="hsl(22, 75%, 90%)" opacity="0.47"></circle><circle r="8.5" cx="732" cy="578" fill="hsl(23, 75%, 90%)" opacity="0.73"></circle><circle r="8.5" cx="583" cy="360" fill="hsl(22, 75%, 90%)" opacity="0.67"></circle><circle r="10.5" cx="156" cy="605" fill="hsl(23, 75%, 90%)" opacity="1.00"></circle><circle r="7.5" cx="566" cy="554" fill="hsl(22, 75%, 90%)" opacity="0.29"></circle><circle r="7" cx="509" cy="571" fill="hsl(22, 75%, 90%)" opacity="0.99"></circle><circle r="9.5" cx="114" cy="674" fill="hsl(23, 75%, 90%)" opacity="0.58"></circle><circle r="9.5" cx="655" cy="75" fill="hsl(23, 75%, 90%)" opacity="0.66"></circle><circle r="8" cx="701" cy="669" fill="hsl(23, 75%, 90%)" opacity="0.58"></circle><circle r="9.5" cx="90" cy="284" fill="hsl(22, 75%, 90%)" opacity="0.90"></circle><circle r="7" cx="499" cy="533" fill="hsl(22, 75%, 90%)" opacity="0.76"></circle><circle r="7.5" cx="351" cy="587" fill="hsl(22, 75%, 90%)" opacity="0.85"></circle><circle r="8.5" cx="784" cy="702" fill="hsl(23, 75%, 90%)" opacity="0.89"></circle><circle r="7.5" cx="50" cy="678" fill="hsl(22, 75%, 90%)" opacity="0.82"></circle><circle r="9" cx="750" cy="482" fill="hsl(23, 75%, 90%)" opacity="0.62"></circle><circle r="10.5" cx="253" cy="372" fill="hsl(23, 75%, 90%)" opacity="0.57"></circle><circle r="8.5" cx="370" cy="385" fill="hsl(22, 75%, 90%)" opacity="0.37"></circle><circle r="10.5" cx="680" cy="132" fill="hsl(23, 75%, 90%)" opacity="0.82"></circle><circle r="7" cx="419" cy="606" fill="hsl(22, 75%, 90%)" opacity="0.18"></circle><circle r="11" cx="164" cy="499" fill="hsl(23, 75%, 90%)" opacity="0.86"></circle><circle r="8" cx="592" cy="71" fill="hsl(22, 75%, 90%)" opacity="0.72"></circle><circle r="10" cx="120" cy="216" fill="hsl(23, 75%, 90%)" opacity="0.49"></circle><circle r="7" cx="428" cy="510" fill="hsl(22, 75%, 90%)" opacity="0.15"></circle><circle r="10.5" cx="165" cy="435" fill="hsl(23, 75%, 90%)" opacity="0.16"></circle><circle r="7.5" cx="395" cy="636" fill="hsl(22, 75%, 90%)" opacity="0.82"></circle><circle r="9" cx="783" cy="463" fill="hsl(23, 75%, 90%)" opacity="0.15"></circle><circle r="10" cx="219" cy="269" fill="hsl(23, 75%, 90%)" opacity="0.59"></circle><circle r="9" cx="108" cy="66" fill="hsl(23, 75%, 90%)" opacity="0.53"></circle><circle r="6" cx="388" cy="101" fill="hsl(22, 75%, 90%)" opacity="0.22"></circle><circle r="10" cx="751" cy="253" fill="hsl(23, 75%, 90%)" opacity="0.45"></circle><circle r="9.5" cx="154" cy="242" fill="hsl(23, 75%, 90%)" opacity="0.31"></circle><circle r="8.5" cx="615" cy="561" fill="hsl(23, 75%, 90%)" opacity="0.22"></circle><circle r="7.5" cx="398" cy="702" fill="hsl(22, 75%, 90%)" opacity="0.83"></circle><circle r="9.5" cx="284" cy="440" fill="hsl(23, 75%, 90%)" opacity="0.34"></circle><circle r="7.5" cx="498" cy="287" fill="hsl(22, 75%, 90%)" opacity="0.88"></circle><circle r="11.5" cx="747" cy="19" fill="hsl(23, 75%, 90%)" opacity="0.37"></circle><circle r="9.5" cx="262" cy="724" fill="hsl(23, 75%, 90%)" opacity="0.83"></circle><circle r="6" cx="436" cy="699" fill="hsl(22, 75%, 90%)" opacity="0.31"></circle><circle r="7.5" cx="554" cy="639" fill="hsl(22, 75%, 90%)" opacity="0.13"></circle><circle r="6.5" cx="446" cy="580" fill="hsl(22, 75%, 90%)" opacity="0.96"></circle><circle r="10.5" cx="246" cy="437" fill="hsl(23, 75%, 90%)" opacity="0.42"></circle><circle r="9.5" cx="178" cy="651" fill="hsl(23, 75%, 90%)" opacity="0.52"></circle><circle r="8.5" cx="307" cy="782" fill="hsl(23, 75%, 90%)" opacity="0.11"></circle><circle r="7.5" cx="19" cy="479" fill="hsl(22, 75%, 90%)" opacity="0.11"></circle><circle r="6.5" cx="465" cy="294" fill="hsl(22, 75%, 90%)" opacity="0.31"></circle><circle r="6" cx="440" cy="354" fill="hsl(22, 75%, 90%)" opacity="0.54"></circle><circle r="9.5" cx="718" cy="393" fill="hsl(23, 75%, 90%)" opacity="0.10"></circle><circle r="9" cx="785" cy="156" fill="hsl(23, 75%, 90%)" opacity="0.30"></circle><circle r="9" cx="635" cy="181" fill="hsl(23, 75%, 90%)" opacity="0.69"></circle><circle r="10" cx="266" cy="304" fill="hsl(23, 75%, 90%)" opacity="0.34"></circle><circle r="6.5" cx="476" cy="356" fill="hsl(22, 75%, 90%)" opacity="0.26"></circle><circle r="9" cx="760" cy="605" fill="hsl(23, 75%, 90%)" opacity="0.32"></circle><circle r="8" cx="586" cy="659" fill="hsl(22, 75%, 90%)" opacity="0.19"></circle><circle r="8.5" cx="84" cy="99" fill="hsl(22, 75%, 90%)" opacity="0.87"></circle><circle r="10.5" cx="190" cy="17" fill="hsl(23, 75%, 90%)" opacity="0.41"></circle><circle r="9" cx="589" cy="324" fill="hsl(22, 75%, 90%)" opacity="0.94"></circle><circle r="7.5" cx="18" cy="261" fill="hsl(22, 75%, 90%)" opacity="0.86"></circle><circle r="8.5" cx="763" cy="566" fill="hsl(23, 75%, 90%)" opacity="0.62"></circle><circle r="6.5" cx="459" cy="162" fill="hsl(22, 75%, 90%)" opacity="0.53"></circle><circle r="8.5" cx="318" cy="438" fill="hsl(23, 75%, 90%)" opacity="0.80"></circle><circle r="9.5" cx="718" cy="468" fill="hsl(23, 75%, 90%)" opacity="0.47"></circle><circle r="9" cx="782" cy="667" fill="hsl(23, 75%, 90%)" opacity="0.96"></circle><circle r="7" cx="498" cy="721" fill="hsl(22, 75%, 90%)" opacity="0.89"></circle><circle r="11" cx="201" cy="332" fill="hsl(23, 75%, 90%)" opacity="0.58"></circle><circle r="7.5" cx="538" cy="783" fill="hsl(22, 75%, 90%)" opacity="0.16"></circle><circle r="6" cx="444" cy="386" fill="hsl(22, 75%, 90%)" opacity="0.15"></circle><circle r="7" cx="19" cy="594" fill="hsl(22, 75%, 90%)" opacity="0.35"></circle><circle r="8" cx="76" cy="550" fill="hsl(22, 75%, 90%)" opacity="0.69"></circle><circle r="8.5" cx="784" cy="236" fill="hsl(23, 75%, 90%)" opacity="0.49"></circle><circle r="11" cx="225" cy="600" fill="hsl(23, 75%, 90%)" opacity="0.14"></circle><circle r="6.5" cx="453" cy="325" fill="hsl(22, 75%, 90%)" opacity="1.00"></circle><circle r="8.5" cx="343" cy="412" fill="hsl(22, 75%, 90%)" opacity="0.52"></circle><circle r="8.5" cx="645" cy="783" fill="hsl(23, 75%, 90%)" opacity="0.64"></circle><circle r="10" cx="178" cy="782" fill="hsl(23, 75%, 90%)" opacity="0.57"></circle><circle r="9" cx="627" cy="217" fill="hsl(23, 75%, 90%)" opacity="0.28"></circle><circle r="9.5" cx="212" cy="782" fill="hsl(23, 75%, 90%)" opacity="0.35"></circle><circle r="5" cx="445" cy="15" fill="hsl(22, 75%, 90%)" opacity="0.46"></circle><circle r="11" cx="688" cy="54" fill="hsl(23, 75%, 90%)" opacity="0.34"></circle><circle r="9" cx="259" cy="17" fill="hsl(23, 75%, 90%)" opacity="0.56"></circle><circle r="10" cx="168" cy="149" fill="hsl(23, 75%, 90%)" opacity="0.76"></circle><circle r="9" cx="694" cy="199" fill="hsl(23, 75%, 90%)" opacity="0.87"></circle><circle r="10.5" cx="182" cy="182" fill="hsl(23, 75%, 90%)" opacity="0.91"></circle><circle r="8" cx="533" cy="178" fill="hsl(22, 75%, 90%)" opacity="0.13"></circle><circle r="10.5" cx="754" cy="134" fill="hsl(23, 75%, 90%)" opacity="0.15"></circle><circle r="8.5" cx="295" cy="82" fill="hsl(22, 75%, 90%)" opacity="0.66"></circle><circle r="9.5" cx="315" cy="578" fill="hsl(23, 75%, 90%)" opacity="0.80"></circle><circle r="8" cx="57" cy="458" fill="hsl(22, 75%, 90%)" opacity="0.24"></circle><circle r="8.5" cx="659" cy="712" fill="hsl(23, 75%, 90%)" opacity="0.31"></circle><circle r="6" cx="434" cy="785" fill="hsl(22, 75%, 90%)" opacity="0.19"></circle><circle r="10.5" cx="194" cy="748" fill="hsl(23, 75%, 90%)" opacity="0.29"></circle><circle r="10" cx="123" cy="501" fill="hsl(23, 75%, 90%)" opacity="0.77"></circle><circle r="9" cx="330" cy="212" fill="hsl(22, 75%, 90%)" opacity="0.89"></circle><circle r="7" cx="531" cy="722" fill="hsl(22, 75%, 90%)" opacity="0.43"></circle><circle r="8.5" cx="321" cy="645" fill="hsl(23, 75%, 90%)" opacity="0.12"></circle><circle r="8.5" cx="784" cy="350" fill="hsl(23, 75%, 90%)" opacity="0.56"></circle><circle r="7" cx="414" cy="439" fill="hsl(22, 75%, 90%)" opacity="1.00"></circle><circle r="7" cx="371" cy="778" fill="hsl(22, 75%, 90%)" opacity="0.57"></circle><circle r="6.5" cx="16" cy="629" fill="hsl(22, 75%, 90%)" opacity="0.30"></circle><circle r="8.5" cx="592" cy="537" fill="hsl(22, 75%, 90%)" opacity="0.19"></circle><circle r="7.5" cx="355" cy="114" fill="hsl(22, 75%, 90%)" opacity="0.74"></circle><circle r="7.5" cx="364" cy="705" fill="hsl(22, 75%, 90%)" opacity="0.88"></circle><circle r="9" cx="679" cy="779" fill="hsl(23, 75%, 90%)" opacity="0.25"></circle><circle r="8" cx="560" cy="305" fill="hsl(22, 75%, 90%)" opacity="0.69"></circle><circle r="9.5" cx="126" cy="298" fill="hsl(23, 75%, 90%)" opacity="0.65"></circle><circle r="9" cx="314" cy="178" fill="hsl(23, 75%, 90%)" opacity="0.95"></circle><circle r="6" cx="426" cy="45" fill="hsl(22, 75%, 90%)" opacity="0.68"></circle><circle r="11" cx="752" cy="60" fill="hsl(23, 75%, 90%)" opacity="0.44"></circle><circle r="9" cx="700" cy="161" fill="hsl(23, 75%, 90%)" opacity="0.93"></circle><circle r="8.5" cx="582" cy="395" fill="hsl(22, 75%, 90%)" opacity="0.13"></circle><circle r="9.5" cx="129" cy="334" fill="hsl(23, 75%, 90%)" opacity="0.69"></circle><circle r="9" cx="783" cy="426" fill="hsl(23, 75%, 90%)" opacity="0.89"></circle><circle r="6" cx="451" cy="127" fill="hsl(22, 75%, 90%)" opacity="0.39"></circle><circle r="8.5" cx="86" cy="698" fill="hsl(22, 75%, 90%)" opacity="0.94"></circle><circle r="7.5" cx="522" cy="610" fill="hsl(22, 75%, 90%)" opacity="0.82"></circle><circle r="10.5" cx="192" cy="221" fill="hsl(23, 75%, 90%)" opacity="0.20"></circle><circle r="8.5" cx="665" cy="679" fill="hsl(23, 75%, 90%)" opacity="0.48"></circle><circle r="8" cx="558" cy="77" fill="hsl(22, 75%, 90%)" opacity="0.47"></circle><circle r="9.5" cx="93" cy="322" fill="hsl(22, 75%, 90%)" opacity="0.95"></circle><circle r="8" cx="364" cy="523" fill="hsl(22, 75%, 90%)" opacity="0.30"></circle><circle r="6.5" cx="480" cy="389" fill="hsl(22, 75%, 90%)" opacity="0.90"></circle><circle r="9" cx="618" cy="48" fill="hsl(23, 75%, 90%)" opacity="0.95"></circle><circle r="7" cx="483" cy="753" fill="hsl(22, 75%, 90%)" opacity="0.24"></circle><circle r="7.5" cx="53" cy="751" fill="hsl(22, 75%, 90%)" opacity="0.88"></circle><circle r="6" cx="558" cy="15" fill="hsl(22, 75%, 90%)" opacity="0.83"></circle><circle r="11" cx="214" cy="368" fill="hsl(23, 75%, 90%)" opacity="0.73"></circle><circle r="6.5" cx="349" cy="47" fill="hsl(22, 75%, 90%)" opacity="0.44"></circle><circle r="9.5" cx="255" cy="629" fill="hsl(23, 75%, 90%)" opacity="0.39"></circle><circle r="7" cx="17" cy="84" fill="hsl(22, 75%, 90%)" opacity="0.44"></circle><circle r="9" cx="255" cy="86" fill="hsl(23, 75%, 90%)" opacity="0.92"></circle><circle r="8.5" cx="342" cy="311" fill="hsl(22, 75%, 90%)" opacity="0.59"></circle><circle r="11.5" cx="175" cy="362" fill="hsl(23, 75%, 90%)" opacity="0.21"></circle><circle r="9.5" cx="157" cy="748" fill="hsl(23, 75%, 90%)" opacity="0.54"></circle><circle r="9.5" cx="281" cy="569" fill="hsl(23, 75%, 90%)" opacity="0.75"></circle><circle r="9.5" cx="718" cy="356" fill="hsl(23, 75%, 90%)" opacity="0.92"></circle><circle r="7.5" cx="340" cy="782" fill="hsl(22, 75%, 90%)" opacity="0.30"></circle><circle r="7.5" cx="18" cy="740" fill="hsl(22, 75%, 90%)" opacity="0.65"></circle><circle r="5.5" cx="482" cy="16" fill="hsl(22, 75%, 90%)" opacity="0.35"></circle></svg>